<?xml version="1.0" encoding="UTF-8" standalone="no"?>
<!DOCTYPE svg PUBLIC "-//W3C//DTD SVG 1.1//EN" "http://www.w3.org/Graphics/SVG/1.1/DTD/svg11.dtd">
<svg width="100%" height="100%" viewBox="0 0 841 312" version="1.1" xmlns="http://www.w3.org/2000/svg" xmlns:xlink="http://www.w3.org/1999/xlink" xml:space="preserve" xmlns:serif="http://www.serif.com/" style="fill-rule:evenodd;clip-rule:evenodd;stroke-linejoin:round;stroke-miterlimit:2;">
    <g transform="matrix(1,0,0,1,-629.735,-1329.49)">
        <g transform="matrix(0.707071,0,0,1.41429,0,0)">
            <g transform="matrix(2.41071,0,0,0.284688,-1794.21,892.771)">
                <path d="M1219.46,265.404L1184.26,265.404C1177.79,265.404 1172.53,243.146 1172.53,215.731C1172.53,188.315 1177.79,166.057 1184.26,166.057L1278.13,166.057C1284.61,166.057 1289.86,188.315 1289.86,215.731C1289.86,243.146 1284.61,265.404 1278.13,265.404L1242.93,265.404L1242.93,613.117C1242.93,640.533 1237.67,662.791 1231.2,662.791C1224.72,662.791 1219.46,640.533 1219.46,613.117L1219.46,265.404ZM1477.6,265.404L1442.4,265.404C1435.92,265.404 1430.66,243.146 1430.66,215.731C1430.66,188.315 1435.92,166.057 1442.4,166.057L1536.26,166.057C1542.74,166.057 1548,188.315 1548,215.731C1548,243.146 1542.74,265.404 1536.26,265.404L1501.06,265.404L1501.06,613.117C1501.06,640.533 1495.81,662.791 1489.33,662.791C1482.86,662.791 1477.6,640.533 1477.6,613.117L1477.6,265.404ZM1336.8,464.097C1317.37,464.097 1301.6,397.324 1301.6,315.077C1301.6,232.831 1317.37,166.057 1336.8,166.057L1407.21,166.057C1413.68,166.057 1418.93,188.279 1418.93,215.691L1418.93,215.695C1418.93,228.879 1417.69,241.522 1415.49,250.845C1413.29,260.167 1410.3,265.404 1407.19,265.404L1336.8,265.404C1330.32,265.404 1325.06,287.662 1325.06,315.077C1325.06,342.493 1330.32,364.751 1336.8,364.751L1383.73,364.751C1403.16,364.751 1418.93,431.524 1418.93,513.771C1418.93,596.017 1403.16,662.791 1383.73,662.791L1313.33,662.791C1310.22,662.791 1307.24,657.557 1305.03,648.242C1302.83,638.926 1301.6,626.292 1301.6,613.117L1301.6,613.04C1301.6,599.886 1302.83,587.271 1305.03,577.97C1307.23,568.669 1310.2,563.444 1313.31,563.444L1383.73,563.444C1390.21,563.444 1395.46,541.186 1395.46,513.771C1395.46,486.355 1390.21,464.097 1383.73,464.097L1336.8,464.097Z" style="fill:white;"/>
            </g>
        </g>
        <g transform="matrix(0.707071,0,0,1.41429,0,0)">
            <g transform="matrix(1.53611,0,0,0.767977,23.2801,-402.635)">
                <g transform="matrix(66.6667,0,0,66.6667,559.503,2025.48)">
                    <path d="M0.145,-0C0.123,-0 0.106,-0.006 0.095,-0.018C0.083,-0.029 0.077,-0.046 0.077,-0.068L0.077,-0.637C0.077,-0.659 0.083,-0.676 0.095,-0.688C0.106,-0.699 0.123,-0.705 0.145,-0.705L0.523,-0.705C0.54,-0.705 0.553,-0.701 0.562,-0.692C0.571,-0.683 0.575,-0.671 0.575,-0.655C0.575,-0.638 0.571,-0.626 0.562,-0.617C0.553,-0.608 0.54,-0.603 0.523,-0.603L0.2,-0.603L0.2,-0.411L0.396,-0.411C0.471,-0.411 0.53,-0.394 0.573,-0.359C0.615,-0.324 0.636,-0.273 0.636,-0.206C0.636,-0.139 0.615,-0.088 0.573,-0.053C0.53,-0.018 0.471,-0 0.396,-0L0.145,-0ZM0.2,-0.102L0.38,-0.102C0.425,-0.102 0.459,-0.111 0.48,-0.128C0.501,-0.145 0.512,-0.171 0.512,-0.206C0.512,-0.241 0.501,-0.267 0.48,-0.284C0.459,-0.301 0.425,-0.309 0.38,-0.309L0.2,-0.309L0.2,-0.102Z" style="fill:white;fill-rule:nonzero;"/>
                </g>
                <g transform="matrix(66.6667,0,0,66.6667,604.37,2025.48)">
                    <path d="M0.313,0.01C0.258,0.01 0.21,-0 0.17,-0.021C0.13,-0.042 0.099,-0.071 0.078,-0.109C0.056,-0.147 0.045,-0.192 0.045,-0.244C0.045,-0.295 0.055,-0.339 0.077,-0.377C0.097,-0.415 0.127,-0.445 0.164,-0.467C0.201,-0.488 0.243,-0.499 0.29,-0.499C0.325,-0.499 0.356,-0.493 0.384,-0.482C0.411,-0.471 0.435,-0.454 0.455,-0.433C0.474,-0.412 0.489,-0.386 0.5,-0.356C0.51,-0.325 0.515,-0.291 0.515,-0.253C0.515,-0.241 0.511,-0.232 0.503,-0.226C0.494,-0.219 0.482,-0.216 0.467,-0.216L0.146,-0.216L0.146,-0.288L0.427,-0.288L0.411,-0.273C0.411,-0.304 0.407,-0.329 0.398,-0.35C0.389,-0.371 0.376,-0.387 0.359,-0.398C0.341,-0.409 0.32,-0.414 0.295,-0.414C0.267,-0.414 0.243,-0.408 0.224,-0.395C0.204,-0.382 0.189,-0.363 0.179,-0.34C0.168,-0.316 0.163,-0.288 0.163,-0.255L0.163,-0.248C0.163,-0.193 0.176,-0.153 0.202,-0.126C0.227,-0.098 0.265,-0.085 0.315,-0.085C0.332,-0.085 0.352,-0.087 0.374,-0.092C0.395,-0.096 0.416,-0.103 0.435,-0.114C0.449,-0.122 0.461,-0.126 0.472,-0.125C0.483,-0.124 0.491,-0.12 0.498,-0.113C0.504,-0.106 0.508,-0.098 0.509,-0.089C0.51,-0.079 0.509,-0.069 0.504,-0.059C0.499,-0.049 0.49,-0.04 0.478,-0.033C0.455,-0.018 0.428,-0.008 0.398,-0.001C0.367,0.007 0.339,0.01 0.313,0.01Z" style="fill:white;fill-rule:nonzero;"/>
                </g>
                <g transform="matrix(66.6667,0,0,66.6667,641.436,2025.48)">
                    <path d="M0.252,0.01C0.218,0.01 0.185,0.007 0.153,0.001C0.121,-0.006 0.092,-0.015 0.067,-0.027C0.055,-0.033 0.046,-0.041 0.041,-0.05C0.036,-0.058 0.033,-0.068 0.034,-0.078C0.034,-0.087 0.037,-0.096 0.043,-0.103C0.048,-0.11 0.056,-0.115 0.066,-0.117C0.076,-0.119 0.088,-0.117 0.101,-0.11C0.122,-0.1 0.146,-0.093 0.173,-0.088C0.199,-0.083 0.224,-0.08 0.249,-0.08C0.292,-0.08 0.322,-0.085 0.34,-0.096C0.358,-0.106 0.367,-0.122 0.367,-0.143C0.367,-0.162 0.36,-0.177 0.346,-0.187C0.332,-0.197 0.312,-0.202 0.286,-0.202L0.197,-0.202C0.182,-0.202 0.17,-0.206 0.161,-0.215C0.152,-0.223 0.148,-0.234 0.148,-0.248C0.148,-0.262 0.152,-0.273 0.161,-0.281C0.17,-0.288 0.182,-0.292 0.197,-0.292L0.274,-0.292C0.297,-0.292 0.316,-0.297 0.329,-0.307C0.342,-0.316 0.349,-0.33 0.349,-0.348C0.349,-0.367 0.341,-0.382 0.326,-0.393C0.31,-0.404 0.282,-0.409 0.241,-0.409C0.218,-0.409 0.195,-0.407 0.173,-0.403C0.151,-0.398 0.129,-0.391 0.108,-0.382C0.092,-0.375 0.079,-0.374 0.068,-0.379C0.057,-0.383 0.049,-0.39 0.044,-0.401C0.039,-0.412 0.039,-0.423 0.043,-0.434C0.047,-0.445 0.056,-0.454 0.07,-0.461C0.099,-0.474 0.13,-0.484 0.162,-0.49C0.193,-0.496 0.227,-0.499 0.262,-0.499C0.327,-0.499 0.377,-0.487 0.412,-0.463C0.446,-0.438 0.463,-0.404 0.463,-0.361C0.463,-0.33 0.453,-0.305 0.432,-0.284C0.411,-0.263 0.384,-0.25 0.349,-0.245L0.349,-0.259C0.39,-0.256 0.423,-0.244 0.446,-0.223C0.469,-0.202 0.481,-0.173 0.481,-0.137C0.481,-0.092 0.461,-0.057 0.422,-0.03C0.383,-0.003 0.326,0.01 0.252,0.01Z" style="fill:white;fill-rule:nonzero;"/>
                </g>
                <g transform="matrix(66.6667,0,0,66.6667,676.103,2025.48)">
                    <path d="M0.295,0.01C0.244,0.01 0.2,-0 0.163,-0.021C0.126,-0.042 0.097,-0.071 0.076,-0.11C0.055,-0.148 0.045,-0.193 0.045,-0.245C0.045,-0.284 0.051,-0.32 0.063,-0.351C0.074,-0.382 0.091,-0.408 0.113,-0.431C0.135,-0.453 0.161,-0.47 0.192,-0.482C0.223,-0.493 0.257,-0.499 0.295,-0.499C0.346,-0.499 0.39,-0.489 0.427,-0.468C0.464,-0.447 0.493,-0.418 0.514,-0.38C0.535,-0.342 0.545,-0.297 0.545,-0.245C0.545,-0.206 0.539,-0.17 0.528,-0.139C0.516,-0.108 0.499,-0.081 0.477,-0.059C0.455,-0.036 0.429,-0.019 0.398,-0.008C0.367,0.004 0.333,0.01 0.295,0.01ZM0.295,-0.085C0.32,-0.085 0.341,-0.091 0.36,-0.103C0.379,-0.115 0.393,-0.133 0.404,-0.157C0.414,-0.18 0.419,-0.21 0.419,-0.245C0.419,-0.298 0.408,-0.338 0.385,-0.365C0.362,-0.391 0.332,-0.404 0.295,-0.404C0.27,-0.404 0.249,-0.398 0.23,-0.387C0.211,-0.375 0.197,-0.357 0.187,-0.334C0.176,-0.31 0.171,-0.28 0.171,-0.245C0.171,-0.192 0.182,-0.153 0.205,-0.126C0.228,-0.098 0.258,-0.085 0.295,-0.085Z" style="fill:white;fill-rule:nonzero;"/>
                </g>
                <g transform="matrix(66.6667,0,0,66.6667,715.436,2025.48)">
                    <path d="M0.134,0.008C0.114,0.008 0.099,0.003 0.088,-0.009C0.077,-0.02 0.071,-0.035 0.071,-0.056L0.071,-0.419C0.071,-0.442 0.077,-0.459 0.089,-0.471C0.101,-0.483 0.118,-0.489 0.141,-0.489L0.464,-0.489C0.487,-0.489 0.504,-0.483 0.516,-0.471C0.528,-0.459 0.534,-0.442 0.534,-0.419L0.534,-0.056C0.534,-0.035 0.529,-0.02 0.518,-0.009C0.506,0.003 0.491,0.008 0.471,0.008C0.451,0.008 0.436,0.003 0.425,-0.009C0.414,-0.02 0.409,-0.035 0.409,-0.056L0.409,-0.391L0.196,-0.391L0.196,-0.056C0.196,-0.035 0.191,-0.02 0.181,-0.009C0.17,0.003 0.155,0.008 0.134,0.008Z" style="fill:white;fill-rule:nonzero;"/>
                </g>
                <g transform="matrix(66.6667,0,0,66.6667,755.77,2025.48)">
                    <path d="M0.233,0.01C0.198,0.01 0.166,0.003 0.139,-0.011C0.111,-0.024 0.089,-0.043 0.074,-0.066C0.058,-0.089 0.05,-0.116 0.05,-0.145C0.05,-0.181 0.059,-0.21 0.078,-0.231C0.097,-0.252 0.127,-0.267 0.169,-0.276C0.211,-0.285 0.267,-0.29 0.338,-0.29L0.388,-0.29L0.388,-0.218L0.339,-0.218C0.298,-0.218 0.265,-0.216 0.24,-0.212C0.215,-0.208 0.198,-0.201 0.188,-0.192C0.177,-0.182 0.172,-0.168 0.172,-0.151C0.172,-0.129 0.18,-0.111 0.195,-0.097C0.21,-0.083 0.232,-0.076 0.259,-0.076C0.281,-0.076 0.301,-0.081 0.318,-0.092C0.335,-0.102 0.348,-0.116 0.358,-0.134C0.368,-0.152 0.373,-0.173 0.373,-0.196L0.373,-0.311C0.373,-0.344 0.366,-0.368 0.351,-0.383C0.336,-0.398 0.312,-0.405 0.277,-0.405C0.258,-0.405 0.237,-0.403 0.215,-0.398C0.192,-0.393 0.169,-0.385 0.144,-0.374C0.131,-0.368 0.12,-0.366 0.111,-0.369C0.101,-0.372 0.093,-0.377 0.088,-0.386C0.083,-0.394 0.08,-0.403 0.08,-0.413C0.08,-0.423 0.083,-0.433 0.088,-0.443C0.093,-0.452 0.102,-0.459 0.115,-0.464C0.146,-0.477 0.175,-0.486 0.204,-0.491C0.232,-0.496 0.258,-0.499 0.281,-0.499C0.329,-0.499 0.369,-0.492 0.4,-0.477C0.431,-0.462 0.454,-0.44 0.469,-0.411C0.484,-0.381 0.492,-0.343 0.492,-0.296L0.492,-0.056C0.492,-0.035 0.487,-0.02 0.477,-0.009C0.467,0.003 0.453,0.008 0.434,0.008C0.415,0.008 0.401,0.003 0.391,-0.009C0.38,-0.02 0.375,-0.035 0.375,-0.056L0.375,-0.104L0.383,-0.104C0.378,-0.081 0.369,-0.061 0.356,-0.044C0.342,-0.027 0.325,-0.013 0.304,-0.004C0.283,0.005 0.26,0.01 0.233,0.01Z" style="fill:white;fill-rule:nonzero;"/>
                </g>
                <g transform="matrix(66.6667,0,0,66.6667,793.17,2025.48)">
                    <path d="M0.298,0.01C0.247,0.01 0.202,-0.001 0.164,-0.022C0.126,-0.043 0.097,-0.072 0.076,-0.111C0.055,-0.15 0.045,-0.195 0.045,-0.247C0.045,-0.286 0.051,-0.321 0.063,-0.353C0.074,-0.384 0.091,-0.41 0.113,-0.432C0.135,-0.453 0.162,-0.47 0.193,-0.482C0.224,-0.493 0.259,-0.499 0.298,-0.499C0.32,-0.499 0.344,-0.496 0.37,-0.49C0.395,-0.484 0.419,-0.474 0.442,-0.46C0.453,-0.453 0.46,-0.445 0.463,-0.436C0.466,-0.427 0.467,-0.417 0.465,-0.408C0.463,-0.398 0.459,-0.39 0.453,-0.383C0.446,-0.376 0.438,-0.371 0.429,-0.37C0.42,-0.368 0.409,-0.37 0.398,-0.376C0.383,-0.385 0.368,-0.391 0.353,-0.396C0.338,-0.4 0.323,-0.402 0.309,-0.402C0.287,-0.402 0.268,-0.399 0.251,-0.392C0.234,-0.385 0.22,-0.375 0.209,-0.362C0.197,-0.349 0.188,-0.332 0.182,-0.313C0.176,-0.294 0.173,-0.271 0.173,-0.246C0.173,-0.197 0.185,-0.158 0.209,-0.13C0.232,-0.101 0.266,-0.087 0.309,-0.087C0.323,-0.087 0.337,-0.089 0.353,-0.093C0.368,-0.097 0.383,-0.103 0.398,-0.112C0.409,-0.118 0.42,-0.12 0.429,-0.118C0.438,-0.116 0.445,-0.112 0.451,-0.105C0.457,-0.097 0.461,-0.089 0.462,-0.08C0.463,-0.07 0.462,-0.06 0.459,-0.051C0.455,-0.042 0.448,-0.034 0.438,-0.028C0.416,-0.015 0.393,-0.005 0.368,0.001C0.343,0.007 0.32,0.01 0.298,0.01Z" style="fill:white;fill-rule:nonzero;"/>
                </g>
                <g transform="matrix(66.6667,0,0,66.6667,825.57,2025.48)">
                    <path d="M0.134,0.008C0.114,0.008 0.099,0.003 0.088,-0.009C0.077,-0.02 0.071,-0.035 0.071,-0.056L0.071,-0.434C0.071,-0.455 0.077,-0.471 0.088,-0.482C0.099,-0.492 0.114,-0.497 0.134,-0.497C0.154,-0.497 0.169,-0.492 0.18,-0.482C0.191,-0.471 0.196,-0.455 0.196,-0.434L0.196,-0.3L0.412,-0.3L0.412,-0.434C0.412,-0.455 0.417,-0.471 0.428,-0.482C0.439,-0.492 0.454,-0.497 0.474,-0.497C0.494,-0.497 0.509,-0.492 0.521,-0.482C0.532,-0.471 0.537,-0.455 0.537,-0.434L0.537,-0.056C0.537,-0.035 0.532,-0.02 0.521,-0.009C0.509,0.003 0.494,0.008 0.474,0.008C0.454,0.008 0.439,0.003 0.428,-0.009C0.417,-0.02 0.412,-0.035 0.412,-0.056L0.412,-0.202L0.196,-0.202L0.196,-0.056C0.196,-0.035 0.191,-0.02 0.181,-0.009C0.17,0.003 0.155,0.008 0.134,0.008Z" style="fill:white;fill-rule:nonzero;"/>
                </g>
                <g transform="matrix(66.6667,0,0,66.6667,866.103,2025.48)">
                    <path d="M0.295,0.01C0.244,0.01 0.2,-0 0.163,-0.021C0.126,-0.042 0.097,-0.071 0.076,-0.11C0.055,-0.148 0.045,-0.193 0.045,-0.245C0.045,-0.284 0.051,-0.32 0.063,-0.351C0.074,-0.382 0.091,-0.408 0.113,-0.431C0.135,-0.453 0.161,-0.47 0.192,-0.482C0.223,-0.493 0.257,-0.499 0.295,-0.499C0.346,-0.499 0.39,-0.489 0.427,-0.468C0.464,-0.447 0.493,-0.418 0.514,-0.38C0.535,-0.342 0.545,-0.297 0.545,-0.245C0.545,-0.206 0.539,-0.17 0.528,-0.139C0.516,-0.108 0.499,-0.081 0.477,-0.059C0.455,-0.036 0.429,-0.019 0.398,-0.008C0.367,0.004 0.333,0.01 0.295,0.01ZM0.295,-0.085C0.32,-0.085 0.341,-0.091 0.36,-0.103C0.379,-0.115 0.393,-0.133 0.404,-0.157C0.414,-0.18 0.419,-0.21 0.419,-0.245C0.419,-0.298 0.408,-0.338 0.385,-0.365C0.362,-0.391 0.332,-0.404 0.295,-0.404C0.27,-0.404 0.249,-0.398 0.23,-0.387C0.211,-0.375 0.197,-0.357 0.187,-0.334C0.176,-0.31 0.171,-0.28 0.171,-0.245C0.171,-0.192 0.182,-0.153 0.205,-0.126C0.228,-0.098 0.258,-0.085 0.295,-0.085Z" style="fill:white;fill-rule:nonzero;"/>
                </g>
                <g transform="matrix(66.6667,0,0,66.6667,905.436,2025.48)">
                    <path d="M0.298,0.01C0.247,0.01 0.202,-0.001 0.164,-0.022C0.126,-0.043 0.097,-0.072 0.076,-0.111C0.055,-0.15 0.045,-0.195 0.045,-0.247C0.045,-0.286 0.051,-0.321 0.063,-0.353C0.074,-0.384 0.091,-0.41 0.113,-0.432C0.135,-0.453 0.162,-0.47 0.193,-0.482C0.224,-0.493 0.259,-0.499 0.298,-0.499C0.32,-0.499 0.344,-0.496 0.37,-0.49C0.395,-0.484 0.419,-0.474 0.442,-0.46C0.453,-0.453 0.46,-0.445 0.463,-0.436C0.466,-0.427 0.467,-0.417 0.465,-0.408C0.463,-0.398 0.459,-0.39 0.453,-0.383C0.446,-0.376 0.438,-0.371 0.429,-0.37C0.42,-0.368 0.409,-0.37 0.398,-0.376C0.383,-0.385 0.368,-0.391 0.353,-0.396C0.338,-0.4 0.323,-0.402 0.309,-0.402C0.287,-0.402 0.268,-0.399 0.251,-0.392C0.234,-0.385 0.22,-0.375 0.209,-0.362C0.197,-0.349 0.188,-0.332 0.182,-0.313C0.176,-0.294 0.173,-0.271 0.173,-0.246C0.173,-0.197 0.185,-0.158 0.209,-0.13C0.232,-0.101 0.266,-0.087 0.309,-0.087C0.323,-0.087 0.337,-0.089 0.353,-0.093C0.368,-0.097 0.383,-0.103 0.398,-0.112C0.409,-0.118 0.42,-0.12 0.429,-0.118C0.438,-0.116 0.445,-0.112 0.451,-0.105C0.457,-0.097 0.461,-0.089 0.462,-0.08C0.463,-0.07 0.462,-0.06 0.459,-0.051C0.455,-0.042 0.448,-0.034 0.438,-0.028C0.416,-0.015 0.393,-0.005 0.368,0.001C0.343,0.007 0.32,0.01 0.298,0.01Z" style="fill:white;fill-rule:nonzero;"/>
                </g>
                <g transform="matrix(66.6667,0,0,66.6667,937.836,2025.48)">
                    <path d="M0.237,0.008C0.217,0.008 0.202,0.003 0.191,-0.009C0.18,-0.02 0.174,-0.035 0.174,-0.056L0.174,-0.391L0.052,-0.391C0.016,-0.391 -0.002,-0.407 -0.002,-0.44C-0.002,-0.455 0.003,-0.467 0.013,-0.476C0.022,-0.485 0.035,-0.489 0.052,-0.489L0.421,-0.489C0.457,-0.489 0.475,-0.473 0.475,-0.44C0.475,-0.424 0.47,-0.412 0.461,-0.404C0.452,-0.395 0.438,-0.391 0.421,-0.391L0.299,-0.391L0.299,-0.056C0.299,-0.035 0.294,-0.02 0.284,-0.009C0.273,0.003 0.258,0.008 0.237,0.008Z" style="fill:white;fill-rule:nonzero;"/>
                </g>
                <g transform="matrix(66.6667,0,0,66.6667,969.37,2025.48)">
                    <path d="M0.133,-0C0.113,-0 0.098,-0.005 0.087,-0.016C0.076,-0.027 0.071,-0.042 0.071,-0.062L0.071,-0.434C0.071,-0.455 0.077,-0.471 0.088,-0.482C0.099,-0.492 0.114,-0.497 0.134,-0.497C0.154,-0.497 0.169,-0.492 0.18,-0.482C0.191,-0.471 0.196,-0.455 0.196,-0.434L0.196,-0.327L0.325,-0.327C0.39,-0.327 0.439,-0.313 0.472,-0.286C0.505,-0.259 0.521,-0.219 0.521,-0.166C0.521,-0.133 0.513,-0.103 0.497,-0.079C0.481,-0.054 0.459,-0.034 0.43,-0.021C0.401,-0.007 0.366,-0 0.325,-0L0.133,-0ZM0.196,-0.082L0.306,-0.082C0.337,-0.082 0.362,-0.089 0.379,-0.103C0.396,-0.116 0.405,-0.137 0.405,-0.165C0.405,-0.192 0.396,-0.213 0.379,-0.226C0.362,-0.239 0.337,-0.245 0.306,-0.245L0.196,-0.245L0.196,-0.082Z" style="fill:white;fill-rule:nonzero;"/>
                </g>
                <g transform="matrix(66.6667,0,0,66.6667,1006.24,2025.48)">
                </g>
                <g transform="matrix(66.6667,0,0,66.6667,1024.3,2025.48)">
                    <path d="M0.133,-0C0.113,-0 0.098,-0.005 0.087,-0.016C0.076,-0.027 0.071,-0.042 0.071,-0.062L0.071,-0.427C0.071,-0.447 0.076,-0.462 0.087,-0.473C0.098,-0.484 0.113,-0.489 0.133,-0.489L0.335,-0.489C0.377,-0.489 0.411,-0.484 0.438,-0.474C0.464,-0.464 0.483,-0.45 0.495,-0.431C0.507,-0.412 0.513,-0.388 0.513,-0.361C0.513,-0.33 0.503,-0.305 0.482,-0.284C0.46,-0.263 0.433,-0.25 0.398,-0.245L0.398,-0.259C0.441,-0.256 0.474,-0.244 0.497,-0.222C0.519,-0.2 0.53,-0.172 0.53,-0.137C0.53,-0.095 0.514,-0.062 0.482,-0.037C0.45,-0.012 0.404,-0 0.343,-0L0.133,-0ZM0.187,-0.077L0.332,-0.077C0.359,-0.077 0.38,-0.083 0.395,-0.094C0.409,-0.105 0.416,-0.122 0.416,-0.144C0.416,-0.166 0.409,-0.183 0.395,-0.194C0.38,-0.205 0.359,-0.211 0.332,-0.211L0.187,-0.211L0.187,-0.077ZM0.187,-0.288L0.323,-0.288C0.347,-0.288 0.366,-0.294 0.379,-0.305C0.392,-0.316 0.399,-0.331 0.399,-0.351C0.399,-0.371 0.392,-0.386 0.379,-0.397C0.366,-0.407 0.347,-0.412 0.323,-0.412L0.187,-0.412L0.187,-0.288Z" style="fill:white;fill-rule:nonzero;"/>
                </g>
                <g transform="matrix(66.6667,0,0,66.6667,1062.17,2025.48)">
                </g>
                <g transform="matrix(66.6667,0,0,66.6667,1080.24,2025.48)">
                    <path d="M0.08,0.138C0.063,0.138 0.05,0.133 0.041,0.124C0.031,0.114 0.026,0.1 0.026,0.082L0.026,-0.04C0.026,-0.079 0.045,-0.098 0.084,-0.098L0.14,-0.098L0.066,-0.072C0.083,-0.095 0.097,-0.12 0.107,-0.145C0.117,-0.17 0.124,-0.2 0.129,-0.233C0.134,-0.266 0.136,-0.305 0.136,-0.35L0.136,-0.419C0.136,-0.442 0.142,-0.459 0.154,-0.471C0.166,-0.483 0.183,-0.489 0.206,-0.489L0.447,-0.489C0.47,-0.489 0.487,-0.483 0.499,-0.471C0.511,-0.459 0.517,-0.442 0.517,-0.419L0.517,-0.04L0.459,-0.098L0.539,-0.098C0.558,-0.098 0.572,-0.093 0.582,-0.084C0.592,-0.074 0.597,-0.059 0.597,-0.04L0.597,0.082C0.597,0.119 0.579,0.138 0.544,0.138C0.527,0.138 0.514,0.133 0.505,0.124C0.496,0.114 0.491,0.1 0.491,0.082L0.491,-0L0.132,-0L0.132,0.082C0.132,0.119 0.115,0.138 0.08,0.138ZM0.195,-0.098L0.4,-0.098L0.4,-0.393L0.243,-0.393L0.243,-0.321C0.243,-0.279 0.239,-0.238 0.231,-0.199C0.222,-0.16 0.21,-0.126 0.195,-0.098Z" style="fill:white;fill-rule:nonzero;"/>
                </g>
                <g transform="matrix(66.6667,0,0,66.6667,1121.44,2025.48)">
                    <path d="M0.313,0.01C0.258,0.01 0.21,-0 0.17,-0.021C0.13,-0.042 0.099,-0.071 0.078,-0.109C0.056,-0.147 0.045,-0.192 0.045,-0.244C0.045,-0.295 0.055,-0.339 0.077,-0.377C0.097,-0.415 0.127,-0.445 0.164,-0.467C0.201,-0.488 0.243,-0.499 0.29,-0.499C0.325,-0.499 0.356,-0.493 0.384,-0.482C0.411,-0.471 0.435,-0.454 0.455,-0.433C0.474,-0.412 0.489,-0.386 0.5,-0.356C0.51,-0.325 0.515,-0.291 0.515,-0.253C0.515,-0.241 0.511,-0.232 0.503,-0.226C0.494,-0.219 0.482,-0.216 0.467,-0.216L0.146,-0.216L0.146,-0.288L0.427,-0.288L0.411,-0.273C0.411,-0.304 0.407,-0.329 0.398,-0.35C0.389,-0.371 0.376,-0.387 0.359,-0.398C0.341,-0.409 0.32,-0.414 0.295,-0.414C0.267,-0.414 0.243,-0.408 0.224,-0.395C0.204,-0.382 0.189,-0.363 0.179,-0.34C0.168,-0.316 0.163,-0.288 0.163,-0.255L0.163,-0.248C0.163,-0.193 0.176,-0.153 0.202,-0.126C0.227,-0.098 0.265,-0.085 0.315,-0.085C0.332,-0.085 0.352,-0.087 0.374,-0.092C0.395,-0.096 0.416,-0.103 0.435,-0.114C0.449,-0.122 0.461,-0.126 0.472,-0.125C0.483,-0.124 0.491,-0.12 0.498,-0.113C0.504,-0.106 0.508,-0.098 0.509,-0.089C0.51,-0.079 0.509,-0.069 0.504,-0.059C0.499,-0.049 0.49,-0.04 0.478,-0.033C0.455,-0.018 0.428,-0.008 0.398,-0.001C0.367,0.007 0.339,0.01 0.313,0.01Z" style="fill:white;fill-rule:nonzero;"/>
                </g>
                <g transform="matrix(66.6667,0,0,66.6667,1158.5,2025.48)">
                    <path d="M0.237,0.008C0.217,0.008 0.202,0.003 0.191,-0.009C0.18,-0.02 0.174,-0.035 0.174,-0.056L0.174,-0.391L0.052,-0.391C0.016,-0.391 -0.002,-0.407 -0.002,-0.44C-0.002,-0.455 0.003,-0.467 0.013,-0.476C0.022,-0.485 0.035,-0.489 0.052,-0.489L0.421,-0.489C0.457,-0.489 0.475,-0.473 0.475,-0.44C0.475,-0.424 0.47,-0.412 0.461,-0.404C0.452,-0.395 0.438,-0.391 0.421,-0.391L0.299,-0.391L0.299,-0.056C0.299,-0.035 0.294,-0.02 0.284,-0.009C0.273,0.003 0.258,0.008 0.237,0.008Z" style="fill:white;fill-rule:nonzero;"/>
                </g>
                <g transform="matrix(66.6667,0,0,66.6667,1190.04,2025.48)">
                    <path d="M0.233,0.01C0.198,0.01 0.166,0.003 0.139,-0.011C0.111,-0.024 0.089,-0.043 0.074,-0.066C0.058,-0.089 0.05,-0.116 0.05,-0.145C0.05,-0.181 0.059,-0.21 0.078,-0.231C0.097,-0.252 0.127,-0.267 0.169,-0.276C0.211,-0.285 0.267,-0.29 0.338,-0.29L0.388,-0.29L0.388,-0.218L0.339,-0.218C0.298,-0.218 0.265,-0.216 0.24,-0.212C0.215,-0.208 0.198,-0.201 0.188,-0.192C0.177,-0.182 0.172,-0.168 0.172,-0.151C0.172,-0.129 0.18,-0.111 0.195,-0.097C0.21,-0.083 0.232,-0.076 0.259,-0.076C0.281,-0.076 0.301,-0.081 0.318,-0.092C0.335,-0.102 0.348,-0.116 0.358,-0.134C0.368,-0.152 0.373,-0.173 0.373,-0.196L0.373,-0.311C0.373,-0.344 0.366,-0.368 0.351,-0.383C0.336,-0.398 0.312,-0.405 0.277,-0.405C0.258,-0.405 0.237,-0.403 0.215,-0.398C0.192,-0.393 0.169,-0.385 0.144,-0.374C0.131,-0.368 0.12,-0.366 0.111,-0.369C0.101,-0.372 0.093,-0.377 0.088,-0.386C0.083,-0.394 0.08,-0.403 0.08,-0.413C0.08,-0.423 0.083,-0.433 0.088,-0.443C0.093,-0.452 0.102,-0.459 0.115,-0.464C0.146,-0.477 0.175,-0.486 0.204,-0.491C0.232,-0.496 0.258,-0.499 0.281,-0.499C0.329,-0.499 0.369,-0.492 0.4,-0.477C0.431,-0.462 0.454,-0.44 0.469,-0.411C0.484,-0.381 0.492,-0.343 0.492,-0.296L0.492,-0.056C0.492,-0.035 0.487,-0.02 0.477,-0.009C0.467,0.003 0.453,0.008 0.434,0.008C0.415,0.008 0.401,0.003 0.391,-0.009C0.38,-0.02 0.375,-0.035 0.375,-0.056L0.375,-0.104L0.383,-0.104C0.378,-0.081 0.369,-0.061 0.356,-0.044C0.342,-0.027 0.325,-0.013 0.304,-0.004C0.283,0.005 0.26,0.01 0.233,0.01Z" style="fill:white;fill-rule:nonzero;"/>
                </g>
                <g transform="matrix(66.6667,0,0,66.6667,1227.44,2025.48)">
                    <path d="M0.463,0.008C0.443,0.008 0.428,0.003 0.417,-0.009C0.406,-0.02 0.401,-0.035 0.401,-0.056L0.401,-0.391L0.247,-0.391L0.247,-0.334C0.247,-0.288 0.244,-0.247 0.239,-0.21C0.233,-0.173 0.224,-0.141 0.213,-0.114C0.201,-0.087 0.186,-0.064 0.167,-0.045C0.148,-0.026 0.126,-0.011 0.1,-0C0.086,0.006 0.073,0.008 0.062,0.005C0.05,0.002 0.04,-0.003 0.033,-0.011C0.025,-0.018 0.02,-0.027 0.018,-0.039C0.016,-0.049 0.017,-0.06 0.022,-0.071C0.027,-0.082 0.036,-0.091 0.049,-0.098C0.066,-0.107 0.079,-0.119 0.09,-0.133C0.101,-0.147 0.109,-0.164 0.115,-0.184C0.121,-0.203 0.125,-0.226 0.128,-0.251C0.131,-0.276 0.132,-0.305 0.132,-0.338L0.132,-0.419C0.132,-0.442 0.138,-0.459 0.15,-0.471C0.162,-0.483 0.179,-0.489 0.202,-0.489L0.456,-0.489C0.479,-0.489 0.496,-0.483 0.508,-0.471C0.52,-0.459 0.526,-0.442 0.526,-0.419L0.526,-0.056C0.526,-0.035 0.521,-0.02 0.51,-0.009C0.499,0.003 0.483,0.008 0.463,0.008Z" style="fill:white;fill-rule:nonzero;"/>
                </g>
                <g transform="matrix(66.6667,0,0,66.6667,1267.24,2025.48)">
                    <path d="M0.432,0.008C0.413,0.008 0.399,0.003 0.389,-0.008C0.379,-0.018 0.374,-0.032 0.374,-0.051L0.374,-0.169L0.322,-0.169C0.303,-0.169 0.286,-0.164 0.271,-0.153C0.256,-0.142 0.243,-0.129 0.234,-0.113L0.185,-0.027C0.176,-0.012 0.166,-0.002 0.154,0.004C0.141,0.008 0.129,0.009 0.117,0.006C0.104,0.003 0.094,-0.004 0.085,-0.013C0.076,-0.022 0.071,-0.032 0.069,-0.045C0.066,-0.058 0.069,-0.071 0.078,-0.085L0.109,-0.137C0.119,-0.154 0.133,-0.169 0.152,-0.182C0.171,-0.195 0.19,-0.201 0.21,-0.201L0.23,-0.201L0.23,-0.19C0.173,-0.19 0.129,-0.203 0.098,-0.228C0.067,-0.253 0.052,-0.29 0.052,-0.337C0.052,-0.368 0.059,-0.395 0.074,-0.418C0.088,-0.441 0.109,-0.458 0.137,-0.471C0.165,-0.483 0.2,-0.489 0.241,-0.489L0.427,-0.489C0.447,-0.489 0.463,-0.484 0.474,-0.473C0.485,-0.462 0.49,-0.447 0.49,-0.427L0.49,-0.051C0.49,-0.032 0.485,-0.018 0.474,-0.008C0.463,0.003 0.449,0.008 0.432,0.008ZM0.267,-0.251L0.374,-0.251L0.374,-0.407L0.267,-0.407C0.234,-0.407 0.21,-0.4 0.194,-0.387C0.178,-0.373 0.17,-0.354 0.17,-0.33C0.17,-0.305 0.178,-0.286 0.194,-0.272C0.21,-0.258 0.234,-0.251 0.267,-0.251Z" style="fill:white;fill-rule:nonzero;"/>
                </g>
                <g transform="matrix(66.6667,0,0,66.6667,1304.64,2025.48)">
                    <path d="M0.106,0.005C0.091,0.005 0.079,0.001 0.07,-0.008C0.06,-0.016 0.055,-0.027 0.055,-0.04C0.054,-0.053 0.06,-0.067 0.071,-0.082L0.233,-0.282L0.233,-0.223L0.081,-0.41C0.069,-0.425 0.063,-0.439 0.064,-0.452C0.065,-0.465 0.07,-0.476 0.08,-0.485C0.089,-0.493 0.101,-0.497 0.116,-0.497C0.131,-0.497 0.144,-0.494 0.155,-0.489C0.165,-0.484 0.174,-0.475 0.183,-0.464L0.303,-0.31L0.259,-0.31L0.38,-0.464C0.389,-0.475 0.399,-0.484 0.409,-0.489C0.419,-0.494 0.431,-0.497 0.446,-0.497C0.461,-0.497 0.474,-0.493 0.483,-0.484C0.492,-0.475 0.497,-0.464 0.498,-0.451C0.498,-0.438 0.492,-0.424 0.48,-0.409L0.329,-0.224L0.329,-0.28L0.491,-0.082C0.503,-0.068 0.509,-0.054 0.508,-0.041C0.507,-0.028 0.502,-0.017 0.493,-0.008C0.483,0.001 0.47,0.005 0.455,0.005C0.44,0.005 0.428,0.002 0.418,-0.003C0.408,-0.008 0.398,-0.017 0.389,-0.028L0.259,-0.192L0.301,-0.192L0.172,-0.028C0.163,-0.017 0.154,-0.009 0.144,-0.004C0.134,0.002 0.121,0.005 0.106,0.005Z" style="fill:white;fill-rule:nonzero;"/>
                </g>
                <g transform="matrix(66.6667,0,0,66.6667,1341.97,2025.48)">
                </g>
            </g>
        </g>
    </g>
</svg>
