<?xml version="1.0" encoding="UTF-8" standalone="no"?>
<!DOCTYPE svg PUBLIC "-//W3C//DTD SVG 1.1//EN" "http://www.w3.org/Graphics/SVG/1.1/DTD/svg11.dtd">
<svg width="100%" height="100%" viewBox="0 0 125 38" version="1.1" xmlns="http://www.w3.org/2000/svg" xmlns:xlink="http://www.w3.org/1999/xlink" xml:space="preserve" xmlns:serif="http://www.serif.com/" style="fill-rule:evenodd;clip-rule:evenodd;stroke-linejoin:round;stroke-miterlimit:2;">
    <g transform="matrix(1,0,0,1,-161.843,-64.684)">
        <path d="M186.824,74.668L186.824,102.585L207,102.585L207,96.741L195.234,96.741L195.234,91.641L206.256,91.641L206.256,85.764L195.234,85.764L195.234,80.531L207,80.531L207,74.668L186.824,74.668Z" style="fill-rule:nonzero;"/>
    </g>
    <g transform="matrix(1,0,0,1,-322.28,-64.679)">
        <path d="M396.175,102.581L387.025,102.581L382.155,91.641L380.435,91.641L380.435,102.581L372.025,102.581L372.025,74.662L388.009,74.662C392.978,74.662 394.651,76.976 394.651,80.326L394.651,85.033C394.651,90.018 391.712,91.516 390.606,91.641L390.506,91.641L396.175,102.581ZM380.434,80.555L380.434,85.76L385.92,85.76C386.412,85.76 386.61,85.56 386.61,85.001L386.61,81.311C386.61,80.754 386.41,80.554 385.92,80.554L380.434,80.555Z" style="fill-rule:nonzero;"/>
    </g>
    <g transform="matrix(1,0,0,1,-482.031,-64.69)">
        <path d="M574.09,74.675L570.746,89.481L569.951,94.64L569.424,94.64L568.676,89.48L565.335,74.68L556.435,74.68L564.255,102.597L574.585,102.597L582.455,74.68L574.09,74.675Z" style="fill-rule:nonzero;"/>
    </g>
    <g transform="matrix(1,0,0,1,-640.926,-64.69)">
        <path d="M747.724,74.675L739.852,102.592L749,102.592L749.839,97.886L755.4,97.886L756.335,102.592L765.875,102.592L758.056,74.675L747.724,74.675ZM751.5,88.082L752.35,82.627L752.879,82.627L753.71,88.083L754.61,91.996L750.627,91.996L751.5,88.082Z" style="fill-rule:nonzero;"/>
    </g>
    <g transform="matrix(1,0,0,1,-0.009,-64.688)">
        <path d="M8.42,82.038L8.42,95.248C8.42,95.805 8.62,96.005 9.109,96.005L18.287,96.005C19.287,96.005 20.157,96 20.895,96L20.895,102.59L6.651,102.59C1.682,102.59 0.01,100.277 0.01,96.928L0.01,80.336C0.01,76.985 1.681,74.673 6.651,74.673L20.9,74.673L20.9,81.283L9.158,81.283C8.617,81.283 8.42,81.483 8.42,82.04" style="fill-rule:nonzero;"/>
    </g>
    <path d="M0,6.6L18.6,6.6C20.921,6.6 22,5.42 22,3.148L22,0L0,0L0,6.6Z" style="fill:rgb(255,191,0);fill-rule:nonzero;"/>
</svg>
