<svg height="76" viewBox="0 0 114 76" width="114" xmlns="http://www.w3.org/2000/svg"><g fill="none" fill-rule="evenodd"><path d="m35.593 41.469c-.328.065-.654.147-.983.24v.698c0 .373-.249.699-.607.795l-.026.008v1.894h2.226v-1.894l-.024-.008a.822.822 0 0 1 -.61-.795v-.753a.77.77 0 0 1 .024-.185m.47-10.894c0 1.06-.256 2.053-.725 2.932 2.471-.644 5.02-1.286 7.494-1.935-.695-1.952-1.453-4.09-1.453-4.09l-.009-.026c-.032-.097-.032-.097-.235-.141l-.132-.033a.798.798 0 0 1 -.609-.795v-.754c0-.168.052-.323.137-.453.052-.094.13-.243-.07-.186a102.622 102.622 0 0 0 -5.648 1.964c.82.932 1.25 2.126 1.25 3.517m17.761 6.389h-1.962a.823.823 0 0 1 -.824-.824v-.753c0-.273.134-.52.346-.671-.162-.42-.425-1.1-.832-2.162l-.805 2.151c.22.15.36.403.36.682v.753a.823.823 0 0 1 -.822.824h-4.91a.823.823 0 0 1 -.824-.824v-.753c0-.29.152-.55.39-.697l-.811-2.281a553.08 553.08 0 0 1 -4.64 1.186c-.453.112-.906.493-.824.988.083.503.09 1.048.053 1.345-.138 1.097-.467 2.264-.988 3.458-.15.342.027.808.688.919.492.081 1.433-.158 1.729-.207 4.694-.768 9.963-1.866 14.134-2.961.184-.05.364-.11.542-.173m-23.894 15.92h-1.185a.824.824 0 0 1 -.824-.824v-.754c0-.244.11-.467.285-.619a4.074 4.074 0 0 0 -.41-.105c-.346.676-.9 1.25-1.66 1.688-1.365.79-3.01.954-4.15.954a9.862 9.862 0 0 1 -1.468-.11c-1.23.811-2.632 1.981-3.303 2.973-.337.5.34.85.88.592 2.854-1.373 5.436-1.539 8.783-1.2 1.476.149 2.333-.969 3.018-2.506.015-.032.024-.058.035-.09m-12.626-.893c-.022.004-.067.028-.117.054l-.121.063a.778.778 0 0 1 -.772-.033c-.064.149-.133.29-.194.441-.538 1.335-.647 1.941-.76 2.787-.049.37.038.634.367.661.258.022.481-.186.933-.686.902-1 1.726-1.79 2.582-2.467a7.709 7.709 0 0 1 -1.684-.752c-.157-.072-.227-.068-.234-.068m2.983-3.307c-.51-.127-1.102-.278-1.674-.504l-.1.133c.122.04.237.107.333.204.66.673 2.049 1.399 3.14 1.399.53 0 .844-.066 1-.121-.04-.078-.134-.179-.35-.307-.43-.253-1.123-.464-1.736-.643-.18-.052-.39-.104-.613-.16m-4.642 2.692-.046-.056a.825.825 0 0 1 .099-1.165l1.051-.877a28.73 28.73 0 0 1 1.011-1.515c-.004-.003-.007-.003-.013-.006-1.052-.65-1.587-1.578-1.587-2.764 0-1.565.736-2.798 2.116-3.583-.223-.364-.492-.444-1.062-.24-.829.298-2.1 1.153-2.787 2.553-1.097 2.236-2.016 5.601-1.879 9.058.055 1.372.384 2.58.807 3.425.296.593.798.49.895-.132.165-1.07.518-2.307.776-3.062.196-.575.387-1.1.619-1.636m12.909-1.94v-6.226l-.024-.009a.815.815 0 0 1 -.491-.371.831.831 0 0 1 -.266.404l-.441.361-1.45 1.195a.825.825 0 0 1 -1.077-.025c-.697-.632-1.995-.98-2.626-.98-.544 0-.853.075-.992.132a.567.567 0 0 0 .174.123c.342.185.966.365 1.758.591l.178.051v-.001l.4.113c.853.234 1.915.526 2.79 1.067 1.145.713 1.727 1.7 1.727 2.94 0 .263-.03.513-.075.755a5.95 5.95 0 0 0 .415-.12m-8.787 7.421c-.448.147-.494.809-.055.974 1.629.612 2.97 1.626 4.173 2.999.431.494 1.789.641 2.525.733 1.346.172 2.333.049 3.527-.795.505-.357.567-.554.452-.988-.288-1.09-.823-1.687-1.893-2.334-.822-.495-2.25-1.078-3.871-1.18-1.757-.109-3.733.22-4.858.591m1.519-19.893h-2.327a22.491 22.491 0 0 0 -2.349 2.916c-.163.244.043.617.431.474a3.72 3.72 0 0 1 .97-.228c.397-.031.718.108.906.453.073.134.148.284.22.433 1.146-.426 2.323-.504 2.993-.504.132 0 .26.006.39.01 1.602-1.267 3.473-2.51 5.22-3.554h-4.221a.823.823 0 0 1 -.823-.824v-.545c.003-.196-.18-.185-.25-.027l-.41.91a.823.823 0 0 1 -.751.486m2.046-2.379v-1.472c-.288.213-.57.431-.853.654.206.149.341.39.341.663v.13c0 .02-.006.04-.006.059.003.003.003.009.003.02-.01.13.1.185.243.067a.768.768 0 0 1 .247-.114z" fill="#c31e38"/><path d="m17.664 36.964h-5.11c-.02 0-.037-.004-.056-.005-1.207 2.81-1.831 5.679-1.854 8.465-.012 1.333.123 2.63.482 3.843.223.755.798.714.84-.027.062-1.07.278-2.247.935-4.05 1.173-3.215 2.686-5.853 4.763-8.226m8.096 4.286c.033.014.067.028.1.045.208.11.297.104.307.104.018 0 .064-.026.113-.052l.134-.07c.34-.173.73-.077.976.215l.488.575.044.057v-.47c0-.455.37-.824.823-.824h5.042c.012 0 .02.003.033.003.608-.247 1.2-.536 1.428-.835.879-1.153 1.533-2.975 1.594-4.139.042-.783-.132-1.315-.96-1.25-.5.04-1.008.118-1.498.223a6.137 6.137 0 0 1 -.525.49c-1.173.972-2.748 1.552-4.365 1.627a45.22 45.22 0 0 0 -5.603 3.708 7.083 7.083 0 0 1 1.87.593m35.206-6.658.024-.008v-7.294l-.024-.008a.826.826 0 0 1 -.181-.073.688.688 0 0 1 -.192.073l-.15.036c-.25.053-.254.07-.276.138l-.019.054-2.896 7.223c.2.153.326.39.326.653v.755c0 .455-.37.823-.823.823h-.366c-.108.323.014.637.407.664.666.05 2.07-.294 2.634-.439.445-.112.887-.228 1.329-.343a.823.823 0 0 1 -.402-.705v-.755c0-.371.25-.698.609-.794m-30.456-4.017c0-.858-.196-1.5-.58-1.902-.285-.299-.686-.473-1.193-.52v5.575c.693-.048 1.773-.42 1.773-3.153m27.384-9.689c-2.172.145-4.061.498-6.425 1.099-2.616.665-6.148 1.601-9.797 2.728-.174.068-.147.196.032.196h5.018c.454 0 .823.37.823.824v.755a.82.82 0 0 1 -.434.721c.085.294.407 1.377.805 2.715.505-1.362.922-2.492 1.03-2.779a.819.819 0 0 1 -.333-.657v-.755c0-.454.37-.824.823-.824h4.077c.456 0 .824.37.824.824v.755a.82.82 0 0 1 -.328.654c.132.35.59 1.585 1.122 3.008.523-1.425.984-2.689 1.099-3a.822.822 0 0 1 -.338-.662v-.755c0-.454.369-.824.823-.824h1.23c.115-.166.21-.32.277-.453.728-1.46 1.047-3.663-.328-3.57m-24.108 31.998h-2.888c-.183.544-.337.785-.488 1.07-.196.369-.077.762.245.692 1.38-.301 3.515-.715 6.15-1.044.966-.12 1.936-.156 2.71-.718h-3.124a.824.824 0 0 1 -.823-.824v-.754a.822.822 0 0 1 .635-.801v-2.042h-2.032c-.065.017-.13.034-.194.053v1.989l.025.007a.82.82 0 0 1 .607.794v.754a.822.822 0 0 1 -.823.824" fill="#c31e38"/><path d="m47.52 47.336c.086 1.136.39 2.772 1.452 2.772.312 0 .716-.098 1.058-.864.28-.626.43-1.532.441-2.616a.99.99 0 0 1 -.064.013c-1.06.26-1.97.476-2.887.695" fill="#bd2531"/><path d="m22.515 64.431c.463.074.714-.33.795-.644.218-.832.193-1.566-.228-2.236-1.195-1.907-3.242-2.94-4.972-3.625-.728-.288-1.462-.508-2.203-.947-.305-.181-.7-.226-.968 0-.205.173-.267.549-.205.885.59 3.26 2.465 5.729 7.78 6.567m53.324-37.943v-.249c-.492.105-.936.2-1.312.275-.478.097-.942.194-1.405.291l3.352 2.73v-2.245l-.026-.008a.823.823 0 0 1 -.609-.794m-8.872 8.542a.826.826 0 0 1 .526-.438l.026-.007v-7.295c-.01-.003-.015-.006-.026-.008a.825.825 0 0 1 -.526-.437.82.82 0 0 1 -.528.437l-.024.008v7.295a.82.82 0 0 1 .551.445m.001 1.47a.823.823 0 0 1 -.74.464h-2.54c-1.477.41-3.004.835-4.382 1.189a.98.98 0 0 0 -.723.931c0 .483-.166 1.15-.387 1.746h6.484a.87.87 0 0 1 .22.032c1.184-1.083 2.129-2.26 2.684-3.533.06-.138.088-.258.1-.369a.822.822 0 0 1 -.716-.46m4.636-1.917a93.717 93.717 0 0 0 1.804-.595c-.67-.538-1.314-1.058-1.804-1.455zm14.665-10.678c-1.168.27-3.22.738-5.355 1.217.169.15.279.367.279.612v.753a.822.822 0 0 1 -.634.803v3.057l.1-.043c.162-1.593.942-3.013 2.24-4.044 1.33-1.06 3.128-1.652 5.077-1.681.008-.033.016-.067.021-.097.147-.88-1.221-.694-1.728-.577m26.001-20.282c-2.882.658-8.5 1.817-14.14 2.251-13.172 1.014-29.545 2.918-49.704 7.96-5.6 1.4-17.578 5.148-24.62 9.963-.801.545-1.562 1.112-2.288 1.695l.654 1.493c.045.104.07.217.07.33v.128c0 .456-.37.823-.823.823h-3.615v.92h2.573c.456 0 .824.368.824.823v1.71a.822.822 0 0 1 -.824.824h-2.573v1.064h3.382a39.077 39.077 0 0 1 2.148-1.62v-4.697a.822.822 0 0 1 -.634-.802v-.755c0-.454.369-.824.823-.824h5.62c1.787 0 3.428.436 4.62 1.228.079.053.148.111.225.169 4.816-1.87 10.816-3.666 16.496-5.094 13.79-3.463 31.18-6.09 49.818-8.779 1.961-.283 5.035-1.228 6.56-2.03 2.086-1.099 5.959-3.454 6.971-5.82.319-.745-.508-1.202-1.563-.96" fill="#c31e38"/><path d="m98.352 13.617c-4.91.915-9.608 1.617-14.376 2.37-9.603 1.517-16.687 2.745-22.9 4.125-.74.165-1.096.664-1.096 1.212 0 .512-.083 1.183-.22 1.76a7.814 7.814 0 0 1 -.667 1.826h1.287a.82.82 0 0 1 .4.103.814.814 0 0 1 .4-.103h5.046c.324 0 .606.19.74.465a.826.826 0 0 1 .742-.465h2.794c.19 0 .374.066.52.185l1.096.892c1.354-.292 2.7-.583 3.991-.86a.816.816 0 0 1 .553-.217h.459c2.253-.481 4.275-.912 5.75-1.221 2.861-.601 9.152-2.71 11.364-3.952 2.635-1.483 4.776-3.533 5.435-4.932.546-1.164-.59-1.323-1.318-1.188m-41.665 24.998c-1.153-.383-3.612-.369-4.256-.232-4.143.875-7.162 1.544-10.77 2.174a1.93 1.93 0 0 0 -.72.273h.494c.456 0 .824.369.824.823v.754a.822.822 0 0 1 -.61.795c-.009.002-.015.005-.023.008v3.135l.176-.019a5.945 5.945 0 0 1 2.13-4.126c1.311-1.101 3.1-1.707 5.04-1.707 1.938 0 3.728.606 5.04 1.707a5.927 5.927 0 0 1 2.072 3.667c.079.006.157.006.236.004v-2.661c-.008-.003-.014-.006-.025-.008a.822.822 0 0 1 -.608-.795v-.754c0-.454.367-.823.823-.823h.544c.067-.117.129-.235.182-.347.439-.94.395-1.552-.549-1.868m-28.932 30.577c-2.25-1.015-3.238-2.385-4.007-3.456-.168-.234-.598-.335-.947-.351a10.175 10.175 0 0 1 -2.142-.363c-.378-.108-.604.032-.576.385.344 4.42 4.359 7.571 8.908 6.52.276-.066.414-.318.37-.578-.124-.728-.433-1.116-.837-1.633-.176-.223-.538-.419-.769-.524m6.629-2.413c-.133-.125-.529-.295-.762-.33-2.383-.348-5.359-1.551-6.8-3.499-.156-.212-.493-.35-.782-.37-.37-.028-.686-.074-.96-.083-.269-.01-.598.155-.67.432-.087.337-.122.706-.154.968-.054.453.082 1.03.205 1.277 1.195 2.388 5.516 4.857 9.99 4.401.327-.034.713-.22.658-.823-.09-.987-.369-1.629-.725-1.973" fill="#c31e38"/><path d="m49.922 44.166c-.19-.3-.508-.657-.95-.657-.439 0-.753.356-.94.653-.33.53-.52 1.306-.54 2.19 1.03-.24 2.03-.49 2.915-.737-.082-.571-.247-1.073-.485-1.449" fill="#bd2531"/><path d="m19.246 65.407c.006-.37-.2-.752-.513-.893-1.076-.48-2.243-1.221-2.845-1.852-.297-.31-.72-.239-.72.144 0 .92-.207 1.686-.238 2.45-.143 3.746 1.835 5.581 4.844 6.961.261.12.57.08.752-.22.274-.449.505-1.018.505-1.567 0-.166-.163-.626-.33-.823-.74-.879-1.472-3.253-1.455-4.2m24.685-13.887a5.951 5.951 0 0 1 -2.115-3.959l-.19.021v2.923l.024.007c.359.096.61.423.61.794v.754a.823.823 0 0 1 -.825.824h-.829c-.164.165-.224.348-.19.507.04.183.2.304.421.371.561.17 1.327.449 2.059.746.305.126 1.057.24 1.302.193a24.667 24.667 0 0 0 4.972-1.485c-.067.001-.131.008-.198.008-1.941 0-3.73-.605-5.041-1.704m-5.923 11.224c-.619-.781-1.236-1.193-2.266-1.44a5.425 5.425 0 0 0 -.85-.125c-1.345 0-2.305 0-3.328-.082-.335-.028-.82.132-1.137.377-.366.282-1.127.673-1.971.935-.325.1-.495.52-.268.747 1.523 1.524 5.22 2.855 7.925 2.594 1.276-.124 1.853-.33 2.47-.783.4-.294.33-.576.165-1.028-.134-.372-.493-.88-.74-1.195m3.858-7.714c-1.263-.494-1.882-.52-2.912-.603-.743-.059-1.935-.04-3.417.207-1.53.255-3.211.515-5.745 1.166-.655.17-.833.855-.452 1.118.723.5 1.537 1.407 1.874 2.512.116.384.57.813 1.009.844 1.18.081 3.486.09 4.373-.138 2.113-.55 4.447-1.758 5.709-3.57.349-.5.349-1.227-.44-1.536" fill="#c31e38"/><path d="m21.877 34.545h-4.898a.115.115 0 0 1 -.116-.115v-2.71c0-.065.051-.115.116-.115h3.282v-1.48h-3.281a.116.116 0 0 1 -.116-.116v-2.566c0-.063.051-.114.116-.114h4.317l-.649-1.48h-7.978v.555c.213.066.369.152.467.264.11.127.166.31.166.538v7.462c0 .229-.056.41-.166.539-.098.11-.254.197-.467.264v.555h8.543l.665-1.48m6.037.128a.114.114 0 0 1 -.116-.113v-7.245c0-.065.052-.115.116-.115h.532c1.909 0 3.002 1.23 3.002 3.374 0 2.72-1.01 4.1-3.002 4.1h-.532zm5.346-.074c.85-.706 1.864-1.976 1.864-4.025 0-3.486-3.091-4.727-5.984-4.727h-5.505v.555c.215.067.37.155.467.266.11.126.167.307.167.537v7.462c0 .23-.057.41-.167.538-.097.11-.252.197-.467.265v.555h5.505c1.525 0 3.026-.52 4.12-1.426zm-29.351-3.54a.116.116 0 0 1 -.116-.115v-3.629c0-.065.051-.115.115-.115h.92c.985 0 1.728.771 1.728 1.792 0 1.372-.892 2.068-2.648 2.068m3.478 4.965h3.953l-3.535-4.347a.12.12 0 0 1 -.025-.072c0-.01 0-.021.004-.033a.115.115 0 0 1 .073-.075c.71-.244 2.36-1.016 2.36-2.942 0-1.873-1.523-2.71-4.937-2.71h-5.65v.556c.215.067.37.154.469.266.11.126.165.307.165.538v7.46c0 .23-.055.412-.165.54-.099.11-.254.196-.469.263v.556h4.798v-.556c-.215-.067-.37-.153-.467-.264-.11-.127-.167-.31-.167-.538v-2.399c0-.065.051-.115.115-.115.282 0 .52.03.802.384 0 0 2.61 3.4 2.676 3.488m58.722-.556c-.214-.066-.37-.153-.467-.263-.11-.128-.166-.31-.166-.54v-7.46c0-.23.056-.411.166-.539.097-.112.253-.198.467-.264v-.556h-4.813v.556c.214.066.37.152.467.264.111.127.166.308.166.538v7.461c0 .231-.055.412-.166.54-.097.11-.253.197-.467.264v.555h4.813v-.555zm4.619-4.76a.119.119 0 0 1 .122.016l6.584 5.3h2.818v-.555c-.214-.068-.37-.153-.467-.265-.11-.127-.168-.308-.168-.538v-7.462c0-.23.058-.411.168-.537v-.002c.097-.11.253-.197.467-.264v-.555h-3.475v.555c.214.067.37.154.468.266.11.126.165.308.165.537v4.063a.113.113 0 0 1 -.065.104.116.116 0 0 1 -.12-.014l-6.763-5.511h-2.64v.555c.215.067.37.154.468.266.11.127.166.308.166.537v7.462c0 .229-.056.41-.166.54-.098.11-.253.195-.468.263v.555h3.475v-.555c-.215-.068-.37-.154-.467-.265-.11-.127-.167-.31-.167-.538v-3.853a.12.12 0 0 1 .065-.104m22.534-.032v-.555h-4.346v.555c.214.067.37.153.469.263.11.13.165.31.165.54v3.255a.113.113 0 0 1 -.07.106c-.165.071-.463.107-.884.107-2.106 0-3.133-1.316-3.133-4.021 0-1.383.276-2.425.818-3.095.495-.614 1.214-.927 2.138-.927.673 0 1.71.2 2.838 1.13.121-.107 1.125-.98 1.301-1.135-1.22-.884-2.826-1.391-4.429-1.391-1.799 0-3.45.527-4.65 1.483-1.254.998-1.917 2.36-1.917 3.935 0 1.543.681 2.938 1.918 3.932 1.207.97 2.858 1.503 4.649 1.503 1.603 0 3.24-.537 4.498-1.476v-3.406c0-.23.058-.411.168-.54.095-.11.252-.196.467-.263m-33.016-4.279.019-.004v-.548h-3.435v.559c.156.06.283.16.355.285.045.083.07.175.07.27a.712.712 0 0 1 -.033.207c0 .003-.003.005-.003.007l-1.972 5.39a.114.114 0 0 1 -.107.075.115.115 0 0 1 -.109-.073l-2.026-5.435a.68.68 0 0 1 -.022-.173c0-.29.2-.472.417-.555v-.557h-3.847v.559a.67.67 0 0 1 .347.282c.046.083.069.174.069.271 0 .067-.01.137-.033.209 0 .004-.001.005-.002.007l-1.997 5.39a.111.111 0 0 1 -.11.075.115.115 0 0 1 -.108-.081l-1.6-5.391a.531.531 0 0 1 .04-.427c.11-.192.32-.292.448-.339v-.555h-5.275v.549l.008.001c.272.061.728.164.922.77 0 0 2.665 7.495 2.665 7.498a.894.894 0 0 1 .056.295c0 .083-.016.16-.051.225-.095.18-.285.245-.442.29v.55h4.679v-.551c-.15-.044-.327-.107-.417-.278a.482.482 0 0 1 -.053-.227c0-.09.021-.191.06-.305l1.673-4.47a.116.116 0 0 1 .107-.077c.047 0 .092.03.108.076l1.81 4.698a.092.092 0 0 1 .008.037l.001.027c0 .35-.29.461-.49.518v.552h4.664v-.552c-.193-.057-.465-.168-.465-.504 0-.02 0-.04.002-.06a.171.171 0 0 1 .007-.033l3.093-7.713c.196-.597.698-.705.97-.764m-11.275 24.646c-.85 0-1.49-.478-1.906-1.42-.338-.766-.516-1.844-.516-3.116 0-1.14.237-2.124.688-2.845.439-.705 1.055-1.095 1.734-1.095.68 0 1.298.39 1.743 1.094.455.723.696 1.708.696 2.846 0 2.882-.889 4.536-2.439 4.536m4.437-8.127c-1.143-.96-2.72-1.489-4.437-1.489s-3.294.53-4.438 1.489c-1.191.999-1.82 2.357-1.82 3.93 0 1.586.629 2.952 1.82 3.952 1.141.957 2.717 1.484 4.438 1.484s3.297-.527 4.437-1.484c1.192-.999 1.821-2.366 1.821-3.953 0-1.572-.63-2.93-1.82-3.93m-12.09 8.472c-.214-.066-.369-.153-.467-.263-.11-.128-.166-.31-.166-.54v-7.46c0-.231.055-.412.166-.538l.001-.002c.097-.109.255-.197.466-.264v-.555h-4.813v.555c.21.067.37.155.469.266.109.127.165.307.165.537v2.802c0 .065-.051.116-.114.116h-3.873a.116.116 0 0 1 -.116-.116v-2.802c0-.23.057-.41.168-.539.097-.109.256-.197.467-.264v-.555h-4.813v.555c.212.067.371.155.468.266.11.127.167.307.167.537v7.462c0 .229-.057.41-.167.54-.097.109-.252.196-.468.261v.557h4.814v-.557c-.214-.065-.37-.152-.467-.262-.111-.128-.168-.31-.168-.54v-2.947c0-.065.052-.115.116-.115h3.873c.063 0 .114.05.114.115v2.948c0 .229-.056.41-.167.54-.096.109-.252.196-.467.261v.557h4.813v-.557zm-24.574-.172c.213-.116.571-.308 1.226.005l.01.006c.78.483 2.107 1.055 4.004 1.055 1.45 0 2.756-.292 3.68-.826 1.07-.616 1.611-1.51 1.611-2.657 0-2.05-2.212-2.659-3.828-3.104l-.409-.114-.176-.05c-1.756-.5-2.64-.754-2.64-1.715v-.004c0-.623.696-.968 1.956-.968.89 0 2.333.441 3.18 1.16l1.378-1.134.348-.288-.352-.417-.006.004c-.223.12-.592.32-1.283-.034-.006-.003-.014-.002-.021-.006-.917-.467-1.964-.684-3.292-.684-.73 0-2.128.093-3.3.72-1.15.618-1.732 1.568-1.732 2.826 0 .85.374 1.492 1.14 1.963.676.416 1.526.63 2.276.818.23.058.449.112.645.169 1.54.447 2.814.907 2.795 2.008-.01.582-.71.902-1.97.902-1.36 0-2.911-.814-3.733-1.606l-1.863 1.554c.091.11.279.33.353.417zm50.294 0c.214-.115.572-.308 1.228.005l.011.006c.776.483 2.102 1.055 4.002 1.055 1.45 0 2.754-.292 3.68-.826 1.068-.616 1.61-1.51 1.61-2.657 0-2.094-1.996-2.946-3.95-3.505-.406-.116-.784-.211-1.117-.296-1.237-.315-1.984-.503-1.984-1.184 0-.625.694-.97 1.955-.97.891 0 2.333.441 3.18 1.16.132-.11 1.378-1.134 1.378-1.134s.234-.195.348-.288c-.092-.109-.277-.326-.352-.417l-.005.004c-.221.12-.592.32-1.284-.034-.006-.003-.013-.002-.02-.006-.92-.467-1.966-.684-3.293-.684-.73 0-2.128.093-3.3.72-1.15.618-1.732 1.568-1.732 2.826 0 2.183 2.225 2.825 3.7 3.249l.105.03c.246.07.494.137.732.2 1.244.334 2.32.62 2.32 1.476 0 .583-.7.905-1.971.905-1.363 0-2.911-.814-3.732-1.606l-1.864 1.554c.092.11.277.329.353.417zm-1.207-.752h-4.899a.114.114 0 0 1 -.113-.115v-2.712c0-.064.05-.114.113-.114h3.283v-1.481h-3.283a.115.115 0 0 1 -.113-.116v-2.565c0-.063.05-.115.113-.115h4.319l-.65-1.48h-7.979v.555c.21.068.37.155.467.265.11.126.167.308.167.539v7.461c0 .23-.056.412-.167.539-.097.11-.252.196-.467.262v.557h8.544zm15.872-7.872h-.278v.465h.278c.148 0 .247-.108.247-.233 0-.124-.1-.232-.247-.232zm.236 1.458-.324-.691h-.19v.691h-.4v-1.787h.73c.361 0 .594.264.594.56 0 .248-.16.406-.33.477l.376.75zm-.301-2.195c-.724 0-1.282.556-1.282 1.304 0 .747.558 1.305 1.282 1.305.725 0 1.281-.558 1.281-1.305 0-.748-.556-1.304-1.281-1.304zm0 2.986a1.682 1.682 0 1 1 0-3.364 1.682 1.682 0 0 1 0 3.364z" fill="#222422"/></g></svg>