<svg width="215" height="58" viewBox="0 0 215 58" fill="none" xmlns="http://www.w3.org/2000/svg">
<path d="M0.800781 55.9123L1.48694 48.3723H4.34594C4.80338 48.3723 5.26082 48.3723 5.48954 48.4883C5.83262 48.6043 6.1757 48.7203 6.40442 48.8363C6.63314 48.9523 6.86185 49.3003 6.97621 49.5323C7.09057 49.8803 7.09057 50.2283 7.09057 50.5763C6.97621 51.2723 6.74749 51.7363 6.29006 52.2003C5.83262 52.6643 5.14646 52.8963 4.00286 52.8963H2.05874L1.71566 56.0283H0.800781V55.9123ZM2.1731 51.9683H4.11722C4.80338 51.9683 5.26082 51.8523 5.48954 51.6203C5.83262 51.3883 5.94698 51.0403 5.94698 50.5763C5.94698 50.2283 5.94698 49.9963 5.83262 49.7643C5.71826 49.5323 5.48954 49.4163 5.26082 49.3003C5.0321 49.3003 4.80338 49.3003 4.34594 49.3003H2.40182L2.1731 51.9683Z" fill="black"/>
<path d="M7.66211 55.912L8.11955 50.46H8.92007L8.80571 51.272C9.03443 50.924 9.26315 50.576 9.49187 50.46C9.72059 50.344 9.83495 50.228 10.0637 50.228C10.4067 50.228 10.6355 50.344 10.9785 50.576L10.6355 51.504C10.4067 51.388 10.178 51.272 9.94931 51.272C9.72059 51.272 9.60623 51.388 9.37751 51.504C9.26315 51.62 9.03443 51.852 9.03443 51.968C8.92007 52.316 8.80571 52.664 8.80571 53.012L8.57699 55.912H7.66211V55.912Z" fill="black"/>
<path d="M11.0937 53.1282C11.208 52.0842 11.5511 51.3882 12.1229 50.9242C12.5803 50.4602 13.2665 50.3442 13.8383 50.3442C14.6388 50.3442 15.2106 50.5762 15.5537 51.0402C16.0111 51.5042 16.1255 52.2002 16.0111 53.1282C15.8968 53.8242 15.7824 54.4042 15.5537 54.7522C15.325 55.1002 14.9819 55.4482 14.5245 55.6802C14.067 55.9122 13.6096 56.0282 13.1521 56.0282C12.3516 56.0282 11.7798 55.7962 11.4367 55.3322C11.0937 54.8682 10.9793 54.0562 11.0937 53.1282ZM12.0085 53.1282C11.8942 53.8242 12.0085 54.4042 12.3516 54.7522C12.5803 55.1002 13.0378 55.3322 13.4952 55.3322C13.9527 55.3322 14.2957 55.1002 14.6388 54.7522C14.9819 54.4042 15.2106 53.8242 15.2106 53.1282C15.325 52.4322 15.2106 51.9682 14.8675 51.6202C14.6388 51.2722 14.2957 51.0402 13.8383 51.0402C13.3809 51.0402 13.0378 51.1562 12.6947 51.5042C12.2373 51.9682 12.1229 52.4322 12.0085 53.1282Z" fill="black"/>
<path d="M17.1536 55.9121L17.6111 51.1561H16.8105L16.9249 50.4601H17.7254L17.8398 49.8801C17.8398 49.5321 17.9541 49.1841 18.0685 49.0681C18.1829 48.8361 18.4116 48.6041 18.6403 48.4881C18.869 48.3721 19.2121 48.2561 19.5552 48.2561C19.7839 48.2561 20.127 48.2561 20.3557 48.3721L20.127 49.1841C19.8983 49.1841 19.7839 49.1841 19.5552 49.1841C19.3265 49.1841 19.0977 49.3001 18.9834 49.4161C18.869 49.5321 18.7547 49.7641 18.7547 50.1121V50.5761H19.7839L19.6695 51.2721H18.6403L18.1829 56.0281H17.1536V55.9121Z" fill="black"/>
<path d="M23.7869 54.172L24.7018 54.288C24.4731 54.868 24.13 55.332 23.7869 55.564C23.4438 55.796 22.872 56.028 22.1859 56.028C21.3853 56.028 20.8135 55.796 20.3561 55.332C19.8987 54.868 19.7843 54.172 19.8987 53.244C20.013 52.316 20.2417 51.62 20.8135 51.04C21.3853 50.576 21.9571 50.228 22.7577 50.228C23.4438 50.228 24.0156 50.46 24.4731 50.924C24.9305 51.388 25.0449 52.084 24.9305 53.012C24.9305 53.012 24.9305 53.128 24.9305 53.244H20.9279C20.9279 53.824 21.0423 54.288 21.271 54.636C21.4997 54.984 21.9571 55.1 22.3002 55.1C22.6433 55.1 22.9864 54.984 23.2151 54.868C23.3295 54.868 23.5582 54.52 23.7869 54.172ZM20.9279 52.664H23.9013C23.9013 52.2 23.7869 51.852 23.6725 51.62C23.4438 51.272 23.1007 51.04 22.6433 51.04C22.1859 51.04 21.8428 51.156 21.4997 51.504C21.1566 51.852 21.0423 52.2 20.9279 52.664Z" fill="black"/>
<path d="M25.502 54.2879L26.4168 54.1719C26.4168 54.5199 26.5312 54.8679 26.7599 54.9839C26.9886 55.2159 27.3317 55.3319 27.6748 55.3319C28.1322 55.3319 28.361 55.2159 28.5897 55.0999C28.8184 54.9839 28.9327 54.7519 28.9327 54.5199C28.9327 54.2879 28.9327 54.1719 28.704 54.0559C28.5897 53.9399 28.2466 53.8239 27.7892 53.7079C27.103 53.5919 26.6456 53.36 26.4168 53.244C26.1881 53.128 25.9594 52.896 25.845 52.664C25.7307 52.432 25.7307 52.2 25.7307 51.968C25.7307 51.736 25.845 51.504 25.9594 51.272C26.0738 51.04 26.3025 50.924 26.4168 50.808C26.5312 50.692 26.7599 50.576 26.9886 50.576C27.2174 50.46 27.5604 50.46 27.7892 50.46C28.2466 50.46 28.5897 50.576 28.9327 50.692C29.2758 50.808 29.5045 51.04 29.6189 51.156C29.7333 51.388 29.8476 51.62 29.8476 51.968L28.9327 52.084C28.9327 51.852 28.8184 51.62 28.5897 51.388C28.361 51.272 28.1322 51.156 27.7892 51.156C27.3317 51.156 27.103 51.272 26.8743 51.388C26.6456 51.504 26.5312 51.736 26.5312 51.852C26.5312 51.968 26.5312 52.084 26.6456 52.2C26.7599 52.316 26.8743 52.432 26.9886 52.432C27.103 52.432 27.3317 52.548 27.7892 52.664C28.4753 52.896 28.8184 53.012 29.0471 53.128C29.2758 53.244 29.5045 53.36 29.6189 53.592C29.7333 53.8239 29.8476 54.056 29.7333 54.4039C29.7333 54.7519 29.6189 54.9839 29.3902 55.3319C29.1615 55.5639 28.9328 55.7959 28.5897 55.9119C28.2466 56.0279 27.9035 56.1439 27.4461 56.1439C26.7599 56.1439 26.1881 56.0279 25.845 55.6799C25.7307 55.3319 25.6163 54.8679 25.502 54.2879Z" fill="black"/>
<path d="M30.7617 54.2879L31.6766 54.1719C31.6766 54.5199 31.791 54.8679 32.0197 54.9839C32.2484 55.2159 32.5915 55.3319 32.9346 55.3319C33.392 55.3319 33.6207 55.2159 33.8494 55.0999C34.0782 54.9839 34.1925 54.7519 34.1925 54.5199C34.1925 54.2879 34.1925 54.1719 33.9638 54.0559C33.8494 53.9399 33.5064 53.8239 33.0489 53.7079C32.3628 53.5919 31.9053 53.36 31.6766 53.244C31.4479 53.128 31.2192 52.896 31.1048 52.664C30.9904 52.432 30.9904 52.2 30.9904 51.968C30.9904 51.736 31.1048 51.504 31.2192 51.272C31.3335 51.04 31.5622 50.924 31.6766 50.808C31.791 50.692 32.0197 50.576 32.2484 50.576C32.4771 50.46 32.8202 50.46 33.0489 50.46C33.5064 50.46 33.8494 50.576 34.1925 50.692C34.5356 50.808 34.7643 51.04 34.8787 51.156C34.993 51.388 35.1074 51.62 35.1074 51.968L34.1925 52.084C34.1925 51.852 34.0782 51.62 33.8494 51.388C33.6207 51.272 33.392 51.156 33.0489 51.156C32.5915 51.156 32.3628 51.272 32.134 51.388C31.9053 51.504 31.791 51.736 31.791 51.852C31.791 51.968 31.791 52.084 31.9053 52.2C32.0197 52.316 32.134 52.432 32.2484 52.432C32.3628 52.432 32.5915 52.548 33.0489 52.664C33.7351 52.896 34.0782 53.012 34.3069 53.128C34.5356 53.244 34.7643 53.36 34.8787 53.592C34.993 53.8239 35.1074 54.056 34.993 54.4039C34.993 54.7519 34.8787 54.9839 34.65 55.3319C34.4212 55.5639 34.1925 55.7959 33.8494 55.9119C33.5064 56.0279 33.1633 56.1439 32.7058 56.1439C32.0197 56.1439 31.4479 56.0279 31.1048 55.6799C30.9904 55.3319 30.7617 54.8679 30.7617 54.2879Z" fill="black"/>
<path d="M36.252 55.9123L36.8238 50.4603H37.7386L37.1668 55.9123H36.252ZM36.8238 49.4163L36.9381 48.3723H37.853L37.7386 49.4163H36.8238Z" fill="black"/>
<path d="M38.5409 53.1282C38.6553 52.0842 38.9984 51.3882 39.5702 50.9242C40.0276 50.4602 40.7138 50.3442 41.2856 50.3442C42.0861 50.3442 42.6579 50.5762 43.001 51.0402C43.4584 51.5042 43.5728 52.2002 43.4584 53.1282C43.344 53.8242 43.2297 54.4042 43.001 54.7522C42.7722 55.1002 42.4292 55.4482 41.9717 55.6802C41.5143 55.9122 41.0568 56.0282 40.5994 56.0282C39.7989 56.0282 39.2271 55.7962 38.884 55.3322C38.5409 54.8682 38.4266 54.0562 38.5409 53.1282ZM39.4558 53.1282C39.3415 53.8242 39.4558 54.4042 39.7989 54.7522C40.0276 55.1002 40.485 55.3322 40.9425 55.3322C41.3999 55.3322 41.743 55.1002 42.0861 54.7522C42.4292 54.4042 42.6579 53.8242 42.6579 53.1282C42.7722 52.4322 42.6579 51.9682 42.3148 51.6202C42.0861 51.2722 41.6286 51.0402 41.2856 51.0402C40.8281 51.0402 40.485 51.1562 40.142 51.5042C39.6845 51.9682 39.4558 52.4322 39.4558 53.1282Z" fill="black"/>
<path d="M44.3711 55.9122L44.9429 50.4602H45.7434L45.6291 51.2722C46.0865 50.6922 46.6583 50.3442 47.4588 50.3442C47.8019 50.3442 48.0306 50.4602 48.3737 50.5762C48.6024 50.6922 48.8311 50.8082 48.9455 51.0402C49.0598 51.2722 49.1742 51.5042 49.1742 51.7362C49.1742 51.8522 49.1742 52.2002 49.1742 52.6642L48.8311 56.0282H47.9162L48.2593 52.6642C48.2593 52.3162 48.2593 51.9682 48.2593 51.8522C48.2593 51.6202 48.145 51.5042 47.9162 51.3882C47.8019 51.2722 47.5732 51.2722 47.3444 51.2722C47.0014 51.2722 46.6583 51.3882 46.3152 51.6202C45.9721 51.8522 45.8578 52.3162 45.7434 53.0122L45.4003 56.0282H44.3711V55.9122Z" fill="black"/>
<path d="M53.7504 55.216C53.4073 55.564 53.0642 55.68 52.7211 55.796C52.378 55.912 52.035 56.028 51.6919 56.028C51.1201 56.028 50.6626 55.912 50.3196 55.564C49.9765 55.216 49.8621 54.868 49.9765 54.404C49.9765 54.172 50.0908 53.94 50.2052 53.708C50.3196 53.476 50.5483 53.36 50.777 53.128C51.0057 53.012 51.2344 52.896 51.4632 52.7801C51.6919 52.7801 51.9206 52.6641 52.2637 52.6641C53.0642 52.5481 53.5216 52.432 53.9791 52.3161C53.9791 52.2001 53.9791 52.0841 53.9791 52.0841C53.9791 51.7361 53.9791 51.3881 53.7504 51.2721C53.5216 51.0401 53.1786 50.9241 52.7211 50.9241C52.2637 50.9241 51.9206 51.0401 51.6919 51.1561C51.4632 51.2721 51.3488 51.6201 51.1201 51.9681L50.2052 51.8521C50.3196 51.5041 50.4339 51.1561 50.6626 50.9241C50.8914 50.6921 51.1201 50.4601 51.5775 50.3441C51.9206 50.2281 52.378 50.1121 52.8355 50.1121C53.2929 50.1121 53.636 50.1121 53.9791 50.2281C54.2078 50.3441 54.4365 50.4601 54.5509 50.6921C54.6652 50.8081 54.7796 51.0401 54.7796 51.2721C54.7796 51.3881 54.7796 51.7361 54.7796 52.0841L54.6652 53.36C54.5509 54.172 54.5509 54.752 54.5509 54.984C54.5509 55.216 54.6652 55.448 54.6652 55.68H53.7504C53.8647 55.68 53.8647 55.564 53.7504 55.216ZM53.9791 53.128C53.636 53.244 53.1786 53.36 52.4924 53.476C52.1493 53.476 51.8062 53.592 51.6919 53.708C51.5775 53.824 51.3488 53.824 51.3488 54.056C51.2344 54.172 51.2344 54.288 51.2344 54.52C51.2344 54.752 51.2344 54.984 51.4632 55.1C51.5775 55.216 51.9206 55.332 52.2637 55.332C52.6068 55.332 52.9498 55.216 53.1786 55.1C53.5216 54.984 53.636 54.752 53.8647 54.404C53.9791 54.172 54.0934 53.94 54.0934 53.476L53.9791 53.128Z" fill="black"/>
<path d="M56.0371 55.9123L56.8376 48.3723H57.7525L56.952 55.9123H56.0371Z" fill="black"/>
<path d="M61.0684 58.0002L61.8689 50.4602H62.6694L62.555 51.1562C62.7838 50.9242 63.0125 50.6922 63.2412 50.5762C63.4699 50.4602 63.813 50.3442 64.1561 50.3442C64.6135 50.3442 65.071 50.4602 65.2997 50.6922C65.6428 50.9242 65.8715 51.2722 65.9858 51.7362C66.1002 52.2002 66.2146 52.6642 66.1002 53.1282C66.1002 53.7082 65.8715 54.1722 65.6428 54.6362C65.414 55.1002 65.071 55.4482 64.7279 55.6802C64.2704 55.9122 63.9274 56.0282 63.4699 56.0282C63.1268 56.0282 62.8981 55.9122 62.6694 55.7962C62.4407 55.6802 62.212 55.4482 62.0976 55.3322L61.8689 58.0002H61.0684V58.0002ZM62.3263 53.2442C62.212 53.9402 62.3263 54.5202 62.555 54.7522C62.7838 55.1002 63.1268 55.2162 63.5843 55.2162C64.0417 55.2162 64.3848 54.9842 64.7279 54.6362C65.071 54.2882 65.2997 53.7082 65.2997 53.0122C65.414 52.3162 65.2997 51.7362 65.071 51.3882C64.8422 51.0402 64.4992 50.8082 64.1561 50.8082C63.813 50.8082 63.3556 51.0402 63.0125 51.3882C62.6694 51.9682 62.4407 52.5482 62.3263 53.2442Z" fill="black"/>
<path d="M70.9021 54.172L71.817 54.288C71.5883 54.868 71.2452 55.332 70.9021 55.564C70.5591 55.796 69.9873 56.028 69.3011 56.028C68.5006 56.028 67.9288 55.796 67.4713 55.332C67.0139 54.868 66.8995 54.172 67.0139 53.244C67.1283 52.316 67.357 51.62 67.9288 51.04C68.5006 50.576 69.0724 50.228 69.8729 50.228C70.5591 50.228 71.1309 50.46 71.5883 50.924C72.0457 51.388 72.1601 52.084 72.0457 53.012C72.0457 53.012 72.0457 53.128 72.0457 53.244H68.0431C68.0431 53.824 68.1575 54.288 68.3862 54.636C68.6149 54.984 69.0724 55.1 69.4155 55.1C69.7585 55.1 70.1016 54.984 70.3303 54.868C70.5591 54.868 70.7878 54.52 70.9021 54.172ZM68.0431 52.664H71.0165C71.0165 52.2 70.9021 51.852 70.7878 51.62C70.5591 51.272 70.216 51.04 69.7585 51.04C69.3011 51.04 68.958 51.156 68.6149 51.504C68.3862 51.852 68.1575 52.2 68.0431 52.664Z" fill="black"/>
<path d="M72.8477 55.912L73.4195 50.46H74.22L74.1056 51.272C74.3343 50.924 74.5631 50.576 74.7918 50.46C75.0205 50.344 75.1349 50.228 75.3636 50.228C75.7066 50.228 75.9354 50.344 76.2785 50.576L75.821 51.388C75.5923 51.272 75.3636 51.156 75.1349 51.156C74.9061 51.156 74.7918 51.272 74.5631 51.388C74.4487 51.504 74.22 51.736 74.22 51.852C74.1056 52.2 73.9913 52.548 73.9913 52.896L73.7625 55.796H72.8477V55.912Z" fill="black"/>
<path d="M76.1641 54.2879L77.0789 54.1719C77.0789 54.5199 77.1933 54.8679 77.422 54.9839C77.6507 55.2159 77.9938 55.3319 78.3369 55.3319C78.7943 55.3319 79.0231 55.2159 79.2518 55.0999C79.4805 54.9839 79.5949 54.7519 79.5949 54.5199C79.5949 54.2879 79.5949 54.1719 79.3661 54.0559C79.2518 53.9399 78.9087 53.8239 78.4513 53.7079C77.7651 53.5919 77.3077 53.36 77.0789 53.244C76.8502 53.128 76.6215 52.896 76.5071 52.664C76.3928 52.432 76.3928 52.2 76.3928 51.968C76.3928 51.736 76.5071 51.504 76.6215 51.272C76.7359 51.04 76.9646 50.924 77.0789 50.808C77.1933 50.692 77.422 50.576 77.6507 50.576C77.8795 50.46 78.2225 50.46 78.4513 50.46C78.9087 50.46 79.2518 50.576 79.5949 50.692C79.9379 50.808 80.1667 51.04 80.281 51.156C80.3954 51.388 80.5097 51.62 80.5097 51.968L79.5949 52.084C79.5949 51.852 79.4805 51.62 79.2518 51.388C79.0231 51.272 78.7943 51.156 78.4513 51.156C77.9938 51.156 77.7651 51.272 77.5364 51.388C77.3077 51.504 77.1933 51.736 77.1933 51.852C77.1933 51.968 77.1933 52.084 77.3077 52.2C77.422 52.316 77.5364 52.432 77.6507 52.432C77.7651 52.432 77.9938 52.548 78.4513 52.664C79.1374 52.896 79.4805 53.012 79.7092 53.128C79.9379 53.244 80.1667 53.36 80.281 53.592C80.3954 53.8239 80.3954 54.056 80.3954 54.4039C80.3954 54.7519 80.281 54.9839 80.0523 55.3319C79.8236 55.5639 79.5949 55.7959 79.2518 55.9119C78.9087 56.0279 78.5656 56.1439 78.1082 56.1439C77.422 56.1439 76.8502 56.0279 76.5071 55.6799C76.3928 55.3319 76.2784 54.8679 76.1641 54.2879Z" fill="black"/>
<path d="M81.5391 53.1282C81.6534 52.0842 81.9965 51.3882 82.5683 50.9242C83.0257 50.4602 83.7119 50.3442 84.2837 50.3442C85.0842 50.3442 85.656 50.5762 85.9991 51.0402C86.4565 51.5042 86.5709 52.2002 86.4565 53.1282C86.3422 53.8242 86.2278 54.4042 85.9991 54.7522C85.7704 55.1002 85.4273 55.4482 84.9699 55.6802C84.5124 55.9122 84.055 56.0282 83.5975 56.0282C82.797 56.0282 82.2252 55.7962 81.8821 55.3322C81.6534 54.8682 81.5391 54.0562 81.5391 53.1282ZM82.5683 53.1282C82.4539 53.8242 82.5683 54.4042 82.9114 54.7522C83.1401 55.1002 83.5975 55.3322 84.055 55.3322C84.5124 55.3322 84.8555 55.1002 85.1986 54.7522C85.5417 54.4042 85.7704 53.8242 85.7704 53.1282C85.8847 52.4322 85.7704 51.9682 85.4273 51.6202C85.1986 51.2722 84.7411 51.0402 84.3981 51.0402C83.9406 51.0402 83.5975 51.1562 83.2545 51.5042C82.797 51.9682 82.5683 52.4322 82.5683 53.1282Z" fill="black"/>
<path d="M87.4863 55.9122L88.0581 50.4602H88.8587L88.7443 51.2722C89.2017 50.6922 89.7735 50.3442 90.5741 50.3442C90.9171 50.3442 91.1458 50.4602 91.4889 50.5762C91.7176 50.6922 91.9464 50.8082 92.0607 51.0402C92.1751 51.2722 92.2894 51.5042 92.2894 51.7362C92.2894 51.8522 92.2894 52.2002 92.2894 52.6642L91.832 55.9122H90.9171L91.2602 52.5482C91.2602 52.2002 91.2602 51.8522 91.2602 51.7362C91.2602 51.5042 91.1458 51.3882 90.9171 51.2722C90.8028 51.1562 90.574 51.1562 90.3453 51.1562C90.0022 51.1562 89.6592 51.2722 89.3161 51.5042C88.973 51.7362 88.8587 52.2002 88.7443 52.8962L88.4012 55.9122H87.4863Z" fill="black"/>
<path d="M96.8617 55.216C96.5186 55.564 96.1755 55.68 95.8324 55.796C95.4894 55.912 95.1463 56.028 94.8032 56.028C94.2314 56.028 93.774 55.912 93.4309 55.564C93.0878 55.216 92.9734 54.868 93.0878 54.404C93.0878 54.172 93.2022 53.94 93.3165 53.708C93.4309 53.476 93.6596 53.36 93.8883 53.128C94.1171 53.012 94.3458 52.896 94.5745 52.7801C94.8032 52.7801 95.0319 52.6641 95.375 52.6641C96.1755 52.5481 96.633 52.432 97.0904 52.3161C97.0904 52.2001 97.0904 52.0841 97.0904 52.0841C97.0904 51.7361 97.0904 51.3881 96.8617 51.2721C96.633 51.0401 96.2899 50.9241 95.8324 50.9241C95.375 50.9241 95.0319 51.0401 94.8032 51.1561C94.5745 51.2721 94.4601 51.6201 94.2314 51.9681L93.3165 51.8521C93.4309 51.5041 93.5452 51.1561 93.774 50.9241C94.0027 50.6921 94.2314 50.4601 94.6888 50.3441C95.0319 50.2281 95.4894 50.1121 95.9468 50.1121C96.4042 50.1121 96.7473 50.1121 97.0904 50.2281C97.3191 50.3441 97.5478 50.4601 97.6622 50.6921C97.7766 50.8081 97.8909 51.0401 97.8909 51.2721C97.8909 51.3881 97.8909 51.7361 97.8909 52.0841L97.7766 53.36C97.6622 54.172 97.6622 54.752 97.6622 54.984C97.6622 55.216 97.7766 55.448 97.7766 55.68H96.8617C96.976 55.68 96.8617 55.564 96.8617 55.216ZM96.976 53.128C96.633 53.244 96.1755 53.36 95.4894 53.476C95.1463 53.476 94.8032 53.592 94.6888 53.708C94.5745 53.824 94.3458 53.824 94.3458 54.056C94.2314 54.172 94.2314 54.288 94.2314 54.52C94.2314 54.752 94.2314 54.984 94.4601 55.1C94.5745 55.216 94.9176 55.332 95.2606 55.332C95.6037 55.332 95.9468 55.216 96.1755 55.1C96.5186 54.984 96.633 54.752 96.8617 54.404C96.976 54.172 97.0904 53.94 97.0904 53.476L96.976 53.128Z" fill="black"/>
<path d="M99.1504 55.9123L99.9509 48.3723H100.866L100.065 55.9123H99.1504Z" fill="black"/>
<path d="M104.182 58.0002L104.982 50.4602H105.783L105.668 51.1562C105.897 50.9242 106.126 50.6922 106.354 50.5762C106.583 50.4602 106.926 50.3442 107.269 50.3442C107.727 50.3442 108.184 50.4602 108.413 50.6922C108.756 50.9242 108.985 51.2722 109.099 51.7362C109.213 52.2002 109.328 52.6642 109.213 53.1282C109.213 53.7082 108.985 54.1722 108.756 54.6362C108.527 55.1002 108.184 55.4482 107.841 55.6802C107.384 55.9122 107.041 56.0282 106.583 56.0282C106.24 56.0282 106.011 55.9122 105.783 55.7962C105.554 55.6802 105.325 55.4482 105.211 55.3322L104.982 58.0002H104.182V58.0002ZM105.44 53.2442C105.325 53.9402 105.44 54.5202 105.668 54.7522C105.897 55.1002 106.24 55.2162 106.698 55.2162C107.155 55.2162 107.498 54.9842 107.841 54.6362C108.184 54.2882 108.413 53.7082 108.413 53.0122C108.527 52.3162 108.413 51.7362 108.184 51.3882C107.956 51.0402 107.612 50.8082 107.269 50.8082C106.926 50.8082 106.469 51.0402 106.126 51.3882C105.668 51.9682 105.554 52.5482 105.44 53.2442Z" fill="black"/>
<path d="M110.129 55.912L110.701 50.46H111.501L111.387 51.272C111.616 50.924 111.844 50.576 112.073 50.46C112.302 50.344 112.416 50.228 112.645 50.228C112.988 50.228 113.217 50.344 113.56 50.576L113.102 51.388C112.874 51.272 112.645 51.156 112.416 51.156C112.187 51.156 112.073 51.272 111.844 51.388C111.73 51.504 111.501 51.736 111.501 51.852C111.387 52.2 111.273 52.548 111.273 52.896L111.044 55.796H110.129V55.912Z" fill="black"/>
<path d="M113.559 53.1282C113.673 52.0842 114.016 51.3882 114.588 50.9242C115.045 50.4602 115.731 50.3442 116.303 50.3442C117.104 50.3442 117.676 50.5762 118.019 51.0402C118.476 51.5042 118.59 52.2002 118.476 53.1282C118.362 53.8242 118.247 54.4042 118.019 54.7522C117.79 55.1002 117.447 55.4482 116.989 55.6802C116.532 55.9122 116.075 56.0282 115.617 56.0282C114.817 56.0282 114.245 55.7962 113.902 55.3322C113.673 54.8682 113.559 54.0562 113.559 53.1282ZM114.588 53.1282C114.473 53.8242 114.588 54.4042 114.931 54.7522C115.16 55.1002 115.617 55.3322 116.075 55.3322C116.532 55.3322 116.875 55.1002 117.218 54.7522C117.561 54.4042 117.79 53.8242 117.79 53.1282C117.904 52.4322 117.79 51.9682 117.447 51.6202C117.218 51.2722 116.875 51.0402 116.418 51.0402C115.96 51.0402 115.617 51.1562 115.274 51.5042C114.817 51.9682 114.588 52.4322 114.588 53.1282Z" fill="black"/>
<path d="M121.563 55.1V55.912C121.335 55.912 121.106 56.028 120.877 56.028C120.534 56.028 120.306 56.028 120.077 55.912C119.848 55.796 119.734 55.68 119.734 55.448C119.734 55.216 119.619 54.868 119.734 54.404L120.077 51.272H119.391L119.505 50.576H120.191L120.306 49.184L121.22 48.604L120.992 50.576H121.907L121.792 51.272H120.877L120.534 54.52C120.534 54.752 120.534 54.984 120.534 54.984C120.534 55.1 120.649 55.1 120.649 55.216C120.763 55.216 120.763 55.332 120.992 55.332C121.335 55.1 121.449 55.1 121.563 55.1Z" fill="black"/>
<path d="M126.367 54.172L127.282 54.288C127.053 54.868 126.71 55.332 126.367 55.564C126.024 55.796 125.452 56.028 124.766 56.028C123.965 56.028 123.394 55.796 122.936 55.332C122.479 54.868 122.364 54.172 122.479 53.244C122.593 52.316 122.822 51.62 123.394 51.04C123.965 50.576 124.537 50.228 125.338 50.228C126.024 50.228 126.596 50.46 127.053 50.924C127.511 51.388 127.625 52.084 127.511 53.012C127.511 53.012 127.511 53.128 127.511 53.244H123.508C123.508 53.824 123.622 54.288 123.851 54.636C124.08 54.984 124.537 55.1 124.88 55.1C125.223 55.1 125.566 54.984 125.795 54.868C125.91 54.868 126.138 54.52 126.367 54.172ZM123.394 52.664H126.367C126.367 52.2 126.253 51.852 126.138 51.62C125.91 51.272 125.566 51.04 125.109 51.04C124.652 51.04 124.309 51.156 123.965 51.504C123.737 51.852 123.508 52.2 123.394 52.664Z" fill="black"/>
<path d="M131.971 53.9399L132.886 54.0559C132.772 54.6359 132.429 55.2159 131.971 55.5639C131.514 55.9119 131.056 56.1439 130.37 56.1439C129.684 56.1439 129.112 55.9119 128.655 55.4479C128.197 54.9839 128.083 54.2879 128.197 53.36C128.312 52.78 128.426 52.2 128.655 51.852C128.884 51.388 129.227 51.04 129.684 50.808C130.142 50.576 130.599 50.46 131.056 50.46C131.628 50.46 132.086 50.576 132.429 50.924C132.772 51.272 133.001 51.62 133.001 52.2L132.086 52.316C132.086 51.968 131.971 51.62 131.743 51.504C131.514 51.272 131.285 51.272 130.942 51.272C130.485 51.272 130.142 51.388 129.799 51.736C129.455 52.084 129.227 52.548 129.227 53.36C129.112 54.0559 129.227 54.6359 129.455 54.9839C129.684 55.3319 130.027 55.4479 130.485 55.4479C130.828 55.4479 131.171 55.3319 131.4 55.0999C131.743 54.7519 131.857 54.4039 131.971 53.9399Z" fill="black"/>
<path d="M135.632 55.1V55.912C135.403 55.912 135.174 56.028 134.946 56.028C134.603 56.028 134.374 56.028 134.145 55.912C133.916 55.796 133.802 55.68 133.802 55.448C133.802 55.216 133.688 54.868 133.802 54.404L134.145 51.272H133.459L133.573 50.576H134.259L134.374 49.184L135.289 48.604L135.06 50.576H135.975L135.861 51.272H134.946L134.603 54.52C134.603 54.752 134.603 54.984 134.603 54.984C134.603 55.1 134.717 55.1 134.717 55.216C134.831 55.216 134.831 55.332 135.06 55.332C135.289 55.1 135.403 55.1 135.632 55.1Z" fill="black"/>
<path d="M136.432 55.9123L137.003 50.4603H137.918L137.347 55.9123H136.432ZM137.118 49.4163L137.232 48.3723H138.147L138.033 49.4163H137.118Z" fill="black"/>
<path d="M140.32 55.9119L138.719 50.46H139.634L140.434 53.7079C140.549 54.0559 140.549 54.4039 140.663 54.8679C140.777 54.5199 140.892 54.2879 141.12 53.824L142.607 50.46H143.522L140.892 55.9119H140.32Z" fill="black"/>
<path d="M147.867 54.172L148.782 54.288C148.553 54.868 148.21 55.332 147.867 55.564C147.524 55.796 146.952 56.028 146.266 56.028C145.465 56.028 144.894 55.796 144.436 55.332C143.979 54.868 143.864 54.172 143.979 53.244C144.093 52.316 144.322 51.62 144.894 51.04C145.465 50.576 146.037 50.228 146.838 50.228C147.524 50.228 148.096 50.46 148.553 50.924C149.011 51.388 149.125 52.084 149.011 53.012C149.011 53.012 149.011 53.128 149.011 53.244H145.008C145.008 53.824 145.122 54.288 145.351 54.636C145.58 54.984 146.037 55.1 146.38 55.1C146.723 55.1 147.066 54.984 147.295 54.868C147.524 54.868 147.753 54.52 147.867 54.172ZM145.008 52.664H147.981C147.981 52.2 147.867 51.852 147.753 51.62C147.524 51.272 147.181 51.04 146.723 51.04C146.266 51.04 145.923 51.156 145.58 51.504C145.351 51.852 145.122 52.2 145.008 52.664Z" fill="black"/>
<path d="M156.558 54.172L157.473 54.288C157.245 54.868 156.901 55.332 156.558 55.564C156.215 55.796 155.644 56.028 154.957 56.028C154.157 56.028 153.585 55.796 153.128 55.332C152.67 54.868 152.556 54.172 152.67 53.244C152.785 52.316 153.013 51.62 153.585 51.04C154.157 50.576 154.729 50.228 155.529 50.228C156.215 50.228 156.787 50.46 157.245 50.924C157.702 51.388 157.816 52.084 157.702 53.012C157.702 53.012 157.702 53.128 157.702 53.244H153.585C153.585 53.824 153.699 54.288 153.928 54.636C154.157 54.984 154.614 55.1 154.957 55.1C155.3 55.1 155.644 54.984 155.872 54.868C156.215 54.868 156.444 54.52 156.558 54.172ZM153.699 52.664H156.673C156.673 52.2 156.558 51.852 156.444 51.62C156.215 51.272 155.872 51.04 155.415 51.04C154.957 51.04 154.614 51.156 154.271 51.504C154.042 51.852 153.814 52.2 153.699 52.664Z" fill="black"/>
<path d="M161.819 58L162.047 55.332C161.933 55.564 161.704 55.68 161.361 55.796C161.132 55.912 160.789 56.028 160.561 56.028C159.875 56.028 159.417 55.796 158.96 55.216C158.502 54.752 158.388 53.94 158.502 53.128C158.502 52.548 158.731 52.084 158.96 51.62C159.188 51.156 159.531 50.808 159.875 50.576C160.218 50.344 160.675 50.228 161.132 50.228C161.819 50.228 162.276 50.46 162.619 51.04L162.733 50.344H163.534L162.733 57.884H161.819V58ZM159.417 53.128C159.303 53.824 159.417 54.404 159.646 54.752C159.875 55.1 160.218 55.332 160.675 55.332C161.018 55.332 161.361 55.216 161.704 54.868C162.047 54.52 162.162 54.056 162.276 53.36C162.39 52.664 162.276 52.084 162.047 51.736C161.819 51.388 161.476 51.156 161.018 51.156C160.675 51.156 160.218 51.272 159.989 51.62C159.646 51.852 159.531 52.432 159.417 53.128Z" fill="black"/>
<path d="M167.88 55.9119L167.994 55.0999C167.537 55.6799 166.965 56.0279 166.165 56.0279C165.822 56.0279 165.593 55.9119 165.25 55.7959C165.021 55.6799 164.792 55.5639 164.678 55.3319C164.564 55.0999 164.449 54.8679 164.449 54.6359C164.449 54.4039 164.449 54.1719 164.449 53.824L164.792 50.46H165.707L165.364 53.4759C165.364 53.9399 165.25 54.2879 165.364 54.4039C165.364 54.6359 165.478 54.8679 165.707 54.9839C165.936 55.0999 166.05 55.2159 166.393 55.2159C166.736 55.2159 166.965 55.0999 167.194 54.9839C167.423 54.8679 167.651 54.6359 167.766 54.4039C167.88 54.1719 167.994 53.8239 167.994 53.36L168.337 50.46H169.252L168.681 55.9119H167.88V55.9119Z" fill="black"/>
<path d="M170.168 55.9123L170.74 50.4603H171.655L171.083 55.9123H170.168ZM170.854 49.4163L170.968 48.3723H171.883L171.769 49.4163H170.854Z" fill="black"/>
<path d="M172.34 58.0002L173.14 50.4602H173.941L173.827 51.1562C174.055 50.9242 174.284 50.6922 174.513 50.5762C174.741 50.4602 175.084 50.3442 175.428 50.3442C175.885 50.3442 176.342 50.4602 176.571 50.6922C176.914 50.9242 177.143 51.2722 177.257 51.7362C177.372 52.2002 177.486 52.6642 177.372 53.1282C177.372 53.7082 177.143 54.1722 176.914 54.6362C176.686 55.1002 176.342 55.4482 175.999 55.6802C175.542 55.9122 175.199 56.0282 174.741 56.0282C174.398 56.0282 174.17 55.9122 173.941 55.7962C173.712 55.6802 173.483 55.4482 173.369 55.3322L173.14 58.0002H172.34V58.0002ZM173.598 53.2442C173.483 53.9402 173.598 54.5202 173.827 54.7522C174.055 55.1002 174.398 55.2162 174.856 55.2162C175.313 55.2162 175.656 54.9842 175.999 54.6362C176.342 54.2882 176.571 53.7082 176.571 53.0122C176.686 52.3162 176.571 51.7362 176.342 51.3882C176.114 51.0402 175.771 50.8082 175.428 50.8082C175.084 50.8082 174.627 51.0402 174.284 51.3882C173.941 51.7362 173.712 52.5482 173.598 53.2442Z" fill="black"/>
<path d="M178.402 55.9122L178.974 50.4602H179.775L179.66 51.2722C179.889 51.0402 180.118 50.8082 180.346 50.5762C180.69 50.4602 180.918 50.3442 181.376 50.3442C181.833 50.3442 182.062 50.4602 182.291 50.5762C182.519 50.6922 182.634 50.9242 182.748 51.2722C183.205 50.5762 183.777 50.3442 184.463 50.3442C185.035 50.3442 185.378 50.4602 185.607 50.8082C185.836 51.1562 185.95 51.6202 185.95 52.2002L185.607 55.9122H184.692L185.035 52.4322C185.035 52.0842 185.035 51.7362 185.035 51.6202C185.035 51.5042 184.921 51.2722 184.807 51.2722C184.692 51.1562 184.463 51.1562 184.235 51.1562C183.892 51.1562 183.549 51.2722 183.205 51.5042C182.977 51.7362 182.748 52.2002 182.748 52.7802L182.405 55.9122H181.49L181.833 52.3162C181.833 51.8522 181.833 51.6202 181.719 51.3882C181.604 51.1562 181.376 51.0402 181.033 51.0402C180.804 51.0402 180.575 51.1562 180.346 51.2722C180.118 51.3882 179.889 51.6202 179.775 51.8522C179.66 52.0842 179.546 52.5482 179.546 53.0122L179.317 55.9122H178.402V55.9122Z" fill="black"/>
<path d="M190.98 54.172L191.895 54.288C191.666 54.868 191.323 55.332 190.98 55.564C190.637 55.796 190.065 56.028 189.379 56.028C188.579 56.028 188.007 55.796 187.549 55.332C187.092 54.868 186.978 54.172 187.092 53.244C187.206 52.316 187.435 51.62 188.007 51.04C188.579 50.576 189.151 50.228 189.951 50.228C190.637 50.228 191.209 50.46 191.666 50.924C192.124 51.388 192.238 52.084 192.124 53.012C192.124 53.012 192.124 53.128 192.124 53.244H188.121C188.121 53.824 188.236 54.288 188.464 54.636C188.693 54.984 189.15 55.1 189.494 55.1C189.837 55.1 190.18 54.984 190.408 54.868C190.523 54.868 190.752 54.52 190.98 54.172ZM188.121 52.664H191.095C191.095 52.2 190.98 51.852 190.866 51.62C190.637 51.272 190.294 51.04 189.837 51.04C189.379 51.04 189.036 51.156 188.693 51.504C188.35 51.852 188.236 52.2 188.121 52.664Z" fill="black"/>
<path d="M192.926 55.9122L193.498 50.4602H194.298L194.184 51.2722C194.641 50.6922 195.213 50.3442 196.014 50.3442C196.357 50.3442 196.585 50.4602 196.928 50.5762C197.157 50.6922 197.386 50.8082 197.5 51.0402C197.615 51.2722 197.729 51.5042 197.729 51.7362C197.729 51.8522 197.729 52.2002 197.729 52.6642L197.386 56.0282H196.471L196.814 52.6642C196.814 52.3162 196.814 51.9682 196.814 51.8522C196.814 51.6202 196.7 51.5042 196.471 51.3882C196.357 51.2722 196.128 51.2722 195.899 51.2722C195.556 51.2722 195.213 51.3882 194.87 51.6202C194.527 51.8522 194.412 52.3162 194.298 53.0122L193.955 56.0282H192.926V55.9122Z" fill="black"/>
<path d="M200.815 55.1V55.912C200.587 55.912 200.358 56.028 200.129 56.028C199.786 56.028 199.557 56.028 199.329 55.912C199.1 55.796 198.986 55.68 198.986 55.448C198.986 55.216 198.871 54.868 198.986 54.404L199.329 51.272H198.643L198.757 50.576H199.443L199.557 49.184L200.472 48.604L200.244 50.576H201.159L201.044 51.272H200.129L199.786 54.52C199.786 54.752 199.786 54.984 199.786 54.984C199.786 55.1 199.901 55.1 199.901 55.216C200.015 55.216 200.015 55.332 200.244 55.332C200.472 55.1 200.701 55.1 200.815 55.1Z" fill="black"/>
<path fill-rule="evenodd" clip-rule="evenodd" d="M8.34827 17.4L5.83235 43.8479C8.69135 43.8479 11.5503 43.8479 14.4093 43.8479L16.9253 17.4H25.1592C25.3879 14.732 25.6166 12.18 25.9597 9.51203H0.800519C0.571799 12.064 0.34308 14.732 0 17.4H8.34827V17.4ZM52.3768 9.51203C44.486 9.51203 39.1111 9.51203 31.2202 9.51203C30.191 20.88 29.0474 32.3639 27.9038 43.8479C35.6803 43.8479 41.5126 43.8479 49.4035 43.8479C49.6322 41.2959 49.8609 38.6279 50.0896 36.0759C45.0578 36.0759 42.0844 36.0759 37.167 36.0759C37.3957 33.9879 37.51 32.0159 37.7388 30.044H49.2891C49.5178 27.492 49.7465 24.824 49.9753 22.272H38.6536L39.1111 17.4C44.1429 17.4 46.5445 17.4 51.5763 17.4C51.805 14.732 52.1481 12.064 52.3768 9.51203ZM56.4938 26.68C55.4645 38.3959 63.5841 44.1959 72.1611 44.1959C79.3658 44.1959 87.2566 40.3679 89.5438 30.624C86.5704 30.624 83.9402 30.624 81.0812 30.624C79.8232 34.3359 76.7355 36.1919 72.9616 36.1919C67.8154 36.1919 64.9564 31.7839 65.4139 26.68C65.9857 20.996 69.6452 17.168 74.677 17.168C78.3365 17.168 80.7381 18.792 81.5386 22.272C84.512 22.272 87.1422 22.272 90.0012 22.272C89.5438 13.108 82.3391 9.28003 75.3632 9.28003C67.0149 9.16403 57.7517 14.964 56.4938 26.68Z" fill="#94120A"/>
<path fill-rule="evenodd" clip-rule="evenodd" d="M112.644 9.51196C107.727 9.51196 102.695 9.51196 97.7774 9.51196C96.6338 20.9959 95.6045 32.3639 94.4609 43.8478C97.2056 43.8478 100.179 43.8478 103.152 43.8478L104.067 33.7559H108.527L113.33 43.8478H122.937L123.051 42.5718L117.447 31.6679C126.825 25.7519 125.91 9.51196 112.644 9.51196ZM111.043 25.8679H104.868C105.096 23.0839 105.439 20.0679 105.668 17.2839C107.727 17.2839 109.785 17.2839 111.844 17.2839C116.761 17.3999 115.732 25.8679 111.043 25.8679Z" fill="black"/>
<path fill-rule="evenodd" clip-rule="evenodd" d="M209.05 0.463998C212.138 0.463998 214.654 3.01599 214.654 6.14798C214.654 9.27997 212.138 11.832 209.05 11.832C205.963 11.832 203.447 9.27997 203.447 6.14798C203.561 3.01599 206.077 0.463998 209.05 0.463998ZM209.05 0C205.734 0 203.104 2.66799 203.104 6.03198C203.104 9.39597 205.734 12.064 209.05 12.064C212.367 12.064 214.997 9.39597 214.997 6.03198C215.111 2.78399 212.367 0 209.05 0Z" fill="black"/>
<path fill-rule="evenodd" clip-rule="evenodd" d="M206.191 9.74383V2.20386H209.508C210.194 2.20386 210.651 2.31986 210.995 2.43586C211.338 2.55186 211.566 2.78386 211.795 3.13185C212.024 3.47985 212.138 3.82785 212.138 4.29185C212.138 4.87185 212.024 5.21985 211.681 5.68385C211.338 6.03184 210.88 6.26384 210.08 6.37984C210.308 6.49584 210.537 6.61184 210.651 6.72784C210.88 6.95984 211.223 7.30784 211.452 7.77184L212.71 9.85983H211.452L210.423 8.35184C210.194 7.88784 209.851 7.53984 209.737 7.30784C209.508 7.07584 209.393 6.95984 209.279 6.84384C209.165 6.72784 208.936 6.72784 208.822 6.61184C208.707 6.61184 208.479 6.61184 208.25 6.61184H207.106V9.97583H206.191V9.74383ZM207.221 5.56785H209.279C209.737 5.56785 210.08 5.56785 210.308 5.45185C210.537 5.33585 210.766 5.21985 210.88 4.98785C210.995 4.75585 211.109 4.52385 211.109 4.29185C211.109 3.94385 210.995 3.59585 210.766 3.36385C210.537 3.13185 210.08 3.01585 209.622 3.01585H207.335V5.56785H207.221Z" fill="black"/>
<path fill-rule="evenodd" clip-rule="evenodd" d="M147.754 8.93188L146.839 17.5159C150.842 17.8639 154.273 20.8798 153.701 26.7958C153.129 32.7118 148.898 35.8438 144.895 36.0758L143.98 44.5438C152.557 44.3118 161.478 38.3958 162.507 26.6798C163.65 15.1959 156.103 9.27988 147.754 8.93188Z" fill="black"/>
<path fill-rule="evenodd" clip-rule="evenodd" d="M143.751 35.9598C139.748 35.6118 136.317 32.5958 136.775 26.6799C137.347 20.7639 141.578 17.6319 145.695 17.3999L146.61 8.81592C138.033 8.93192 129.113 14.8479 127.969 26.5639C126.826 38.1638 134.488 44.0798 142.836 44.3118L143.751 35.9598Z" fill="black"/>
<path fill-rule="evenodd" clip-rule="evenodd" d="M190.981 9.51196L189.38 26.3319L185.149 21.6919L183.891 33.4079L193.382 43.8478H196.47L199.787 9.51196C196.928 9.51196 193.954 9.51196 190.981 9.51196Z" fill="black"/>
<path fill-rule="evenodd" clip-rule="evenodd" d="M184.12 20.532L173.942 9.396H170.74L167.424 43.8479C170.397 43.8479 173.371 43.8479 176.344 43.8479L177.945 27.0279L182.748 32.2479L184.12 20.532Z" fill="black"/>
</svg>
