<?xml version="1.0" encoding="utf-8"?>
<!-- Generator: Adobe Illustrator 16.0.3, SVG Export Plug-In . SVG Version: 6.00 Build 0)  -->
<!DOCTYPE svg PUBLIC "-//W3C//DTD SVG 1.1//EN" "http://www.w3.org/Graphics/SVG/1.1/DTD/svg11.dtd">
<svg version="1.1" id="Layer_1" xmlns="http://www.w3.org/2000/svg" xmlns:xlink="http://www.w3.org/1999/xlink" x="0px" y="0px"
	 width="99.237px" height="29.859px" viewBox="0 0 99.237 29.859" enable-background="new 0 0 99.237 29.859" xml:space="preserve">
<polyline fill="#005B94" points="7.219,4.574 0,4.574 0,0 21.136,0 21.136,4.574 13.753,4.574 13.753,23.587 7.219,23.587 
	7.219,4.574 "/>
<polyline fill="#005B94" points="37.531,7.188 28.612,29.859 22.896,29.859 25.216,24.076 18.355,7.188 24.986,7.188 28.221,18.588 
	28.286,18.588 31.814,7.188 37.531,7.188 "/>
<polyline fill="#005B94" points="44.388,23.587 38.148,7.188 44.747,7.188 47.981,18.687 48.047,18.687 51.51,7.188 57.292,7.188 
	51.085,23.587 44.388,23.587 "/>
<path fill="#005B94" d="M68.939,13.296c0-0.882-0.261-1.764-0.751-2.45c-0.49-0.686-1.209-1.11-2.156-1.046
	c-2.155,0.1-2.679,1.635-2.842,3.496H68.939 M63.06,16.628c-0.033,2.124,0.523,3.953,2.842,3.953c1.731,0,2.811-0.817,3.038-2.352
	h5.749c-0.195,2.123-1.535,3.658-3.103,4.572c-1.438,0.915-3.267,1.274-5.194,1.274c-6.566,0-9.18-2.809-9.18-9.245
	c0-5.194,3.888-8.134,8.82-8.134c6.664,0,8.788,3.822,8.788,9.931H63.06z"/>
<path fill="#005B94" d="M82.907,14.44l5.651-7.253h6.763l-5.554,6.893l6.37,9.507h-7.35L82.907,14.44 M76.7,0h6.207v23.586H76.7V0z"
	/>
<path fill="#005B94" d="M97.57,9.718c0.759,0,1.281-0.573,1.281-1.307c0-0.732-0.522-1.306-1.281-1.306
	c-0.758,0-1.279,0.573-1.279,1.306C96.291,9.145,96.813,9.718,97.57,9.718 M97.57,6.745c0.921,0,1.667,0.746,1.667,1.666
	c0,0.921-0.746,1.666-1.667,1.666c-0.92,0-1.665-0.745-1.665-1.666C95.905,7.491,96.65,6.745,97.57,6.745z M97.593,8.275
	c0.193,0,0.373-0.03,0.373-0.284c0-0.22-0.215-0.255-0.368-0.255h-0.32v0.539H97.593z M96.919,7.482h0.714
	c0.473,0,0.719,0.152,0.719,0.543c0,0.334-0.211,0.474-0.487,0.505l0.5,0.82h-0.412l-0.473-0.82h-0.202v0.82h-0.358V7.482z"/>
</svg>
