<?xml version="1.0" encoding="UTF-8" standalone="no"?>
<!-- Created with Inkscape (http://www.inkscape.org/) -->
<svg
   xmlns:svg="http://www.w3.org/2000/svg"
   xmlns="http://www.w3.org/2000/svg"
   version="1.0"
   width="956.69287"
   height="293.03149"
   id="svg2">
  <defs
     id="defs4" />
  <g
     transform="translate(-27.50733,260.75533)"
     id="layer1">
    <g
       transform="translate(35.433051,35.431127)"
       id="g35747">
      <path
         d="M 544.7787,-171.33114 C 548.9411,-196.82597 565.6134,-214.22217 590.6333,-214.22217 C 614.3861,-214.22217 631.4656,-194.79001 632.7325,-171.33114 L 544.7787,-171.33114 z M 703.5842,-132.87398 C 706.9095,-204.1102 668.1583,-260.75533 590.6333,-260.75533 C 526.86221,-260.75533 473.92707,-214.62938 473.92707,-150.27018 C 473.92707,-79.870969 521.86275,-38.58609 592.2846,-38.58609 C 640.6501,-38.58609 686.9119,-59.647033 699.829,-108.19354 L 633.5695,-108.19354 C 626.8962,-92.810677 610.2237,-85.119238 593.1216,-85.119238 C 563.1251,-85.119238 546.023,-104.14422 544.7787,-132.87398 L 703.5842,-132.87398"
         style="fill:#1d3b85;fill-rule:nonzero;stroke:none"
         id="path35511" />
      <path
         d="M 243.00328,-254.67006 L 172.15162,-254.67006 L 172.15162,-142.19419 C 172.15162,-104.9586 148.80581,-95.253829 133.37761,-95.253829 C 110.86903,-95.253829 98.38162,-104.9586 98.38162,-132.87398 L 98.38162,-254.67006 L 27.50733,-254.67006 L 27.50733,-128.4401 C 27.50733,-73.401125 45.44647,-38.58609 107.54348,-38.58609 C 132.54075,-38.58609 160.04879,-51.955594 173.39569,-73.401125 L 174.23273,-73.401125 L 174.23273,-44.671365 L 243.00328,-44.671365 L 243.00328,-254.67006"
         style="fill:#1d3b85;fill-rule:nonzero;stroke:none"
         id="path35515" />
      <path
         d="M 481.64107,-254.67006 L 409.54534,-254.67006 L 369.52726,-115.88496 L 368.69022,-115.88496 L 329.10198,-254.67006 L 255.33216,-254.67006 L 327.42789,-44.671365 L 409.11551,-44.671365 L 481.64107,-254.67006"
         style="fill:#1d3b85;fill-rule:nonzero;stroke:none"
         id="path35519" />
      <path
         d="M 692.3638,-256.02737 L 766.7897,-256.02737 L 799.1162,-210.76103 L 830.9904,-256.02737 L 903.6293,-256.02737 L 834.3384,-158.75338 L 913.3341,-43.675999 L 838.1617,-43.675999 L 798.4151,-101.92728 L 757.9672,-43.675999 L 686.3916,-43.675999 L 761.7676,-155.42798 L 692.3638,-256.02737"
         style="fill:#1d3b85;fill-rule:nonzero;stroke:none"
         id="path35529" />
    </g>
  </g>
</svg>
