<?xml version="1.0" encoding="UTF-8" standalone="no"?>
<!DOCTYPE svg PUBLIC "-//W3C//DTD SVG 1.1//EN" "http://www.w3.org/Graphics/SVG/1.1/DTD/svg11.dtd">
<svg width="100%" height="100%" viewBox="0 0 838 140" version="1.1" xmlns="http://www.w3.org/2000/svg" xmlns:xlink="http://www.w3.org/1999/xlink" xml:space="preserve" xmlns:serif="http://www.serif.com/" style="fill-rule:evenodd;clip-rule:evenodd;stroke-linejoin:round;stroke-miterlimit:2;">
    <g transform="matrix(1,0,0,1,-7,-60.5)">
        <g transform="matrix(1,0,0,1,-6.5,45.3943)">
            <path d="M453.5,16.5C475.775,13.148 493.442,20.481 506.5,38.5C502.425,41.954 498.258,45.287 494,48.5C484.565,34.128 471.398,28.961 454.5,33C434.119,40.759 425.286,55.592 428,77.5C434.675,101.094 450.175,110.928 474.5,107C488.04,102.629 496.04,93.463 498.5,79.5L467.5,79.5L467.5,65.5L514.5,65.5C516.661,95.141 503.661,114.307 475.5,123C444.624,126.987 423.79,114.487 413,85.5C406.757,50.638 420.257,27.638 453.5,16.5Z" style="fill:rgb(2,4,4);fill-opacity:0.94;"/>
        </g>
        <g transform="matrix(1,0,0,1,-6.5,45.3943)">
            <path d="M66.5,120.5L66.5,122.5C60.795,122.829 55.128,122.495 49.5,121.5C37.5,87.167 25.5,52.833 13.5,18.5C19.463,17.504 25.463,17.171 31.5,17.5C42.595,52.119 54.261,86.452 66.5,120.5Z" style="fill:rgb(138,140,141);fill-opacity:0.94;"/>
        </g>
        <g transform="matrix(1,0,0,1,-6.5,45.3943)">
            <path d="M66.5,122.5L66.5,120.5C77.833,86.167 89.167,51.833 100.5,17.5C106.537,17.171 112.537,17.504 118.5,18.5C106.291,53.127 94.291,87.793 82.5,122.5L66.5,122.5Z" style="fill:rgb(2,4,4);fill-opacity:0.94;"/>
        </g>
        <g transform="matrix(1,0,0,1,-6.5,45.3943)">
            <rect x="204.5" y="17.5" width="15" height="105" style="fill:rgb(2,4,4);fill-opacity:0.98;"/>
        </g>
        <g transform="matrix(1,0,0,1,-6.5,45.3943)">
            <rect x="235.5" y="17.5" width="16" height="16" style="fill:rgb(2,4,4);fill-opacity:0.89;"/>
        </g>
        <g transform="matrix(1,0,0,1,-6.5,45.3943)">
            <rect x="267.5" y="17.5" width="15" height="105" style="fill:rgb(2,4,4);"/>
        </g>
        <g transform="matrix(1,0,0,1,-6.5,45.3943)">
            <rect x="298.5" y="17.5" width="16" height="105" style="fill:rgb(2,4,4);fill-opacity:0.92;"/>
        </g>
        <g transform="matrix(1,0,0,1,-6.5,45.3943)">
            <path d="M144.5,41.5C169.278,39.797 185.112,50.797 192,74.5C192.499,79.155 192.666,83.822 192.5,88.5C170.49,88.167 148.49,88.5 126.5,89.5C131.669,104.922 142.336,111.422 158.5,109C165.072,107.382 170.739,104.216 175.5,99.5C179.252,102.041 182.585,105.041 185.5,108.5C174.015,121.385 159.681,126.218 142.5,123C127.939,119.44 118.106,110.606 113,96.5C106.99,68.503 117.49,50.169 144.5,41.5ZM146.5,55.5C162.483,54.145 172.483,61.145 176.5,76.5C159.82,76.833 143.153,76.5 126.5,75.5C129.586,65.08 136.253,58.413 146.5,55.5Z" style="fill:rgb(2,4,4);fill-opacity:0.94;"/>
        </g>
        <g transform="matrix(1,0,0,1,-6.5,45.3943)">
            <path d="M352.5,41.5C367.997,39.157 381.497,43.157 393,53.5C394.893,56.618 396.226,59.951 397,63.5C397.5,83.164 397.667,102.831 397.5,122.5L382.5,122.5C382.666,117.489 382.499,112.489 382,107.5C378.314,115.598 372.147,120.764 363.5,123C354.658,124.126 345.992,123.459 337.5,121C324.267,112.666 320.767,101.166 327,86.5C332.216,79.971 339.049,76.138 347.5,75C359.162,74.5 370.829,74.334 382.5,74.5C383.59,62.755 378.256,56.255 366.5,55C359.831,53.966 353.498,54.966 347.5,58C344.701,60.123 342.701,62.79 341.5,66C336.511,66.499 331.511,66.666 326.5,66.5C326.804,58.727 330.137,52.56 336.5,48C341.603,44.938 346.936,42.771 352.5,41.5ZM358.5,85.5L382.5,85.5C380.004,101.021 370.837,109.355 355,110.5C343.224,110.408 338.557,104.741 341,93.5C345.915,88.594 351.748,85.927 358.5,85.5Z" style="fill:rgb(2,4,4);fill-opacity:0.94;"/>
        </g>
        <g transform="matrix(1,0,0,1,-6.5,45.3943)">
            <path d="M609.5,41.5C633.856,39.712 649.69,50.379 657,73.5C660.384,98.596 650.218,115.096 626.5,123C596.186,126.184 579.186,112.684 575.5,82.5C577.497,60.856 588.83,47.189 609.5,41.5ZM613.5,55.5C631.078,56.078 641.078,65.078 643.5,82.5C640.338,102.843 628.672,111.343 608.5,108C590.867,98.99 586.367,85.49 595,67.5C599.727,61.067 605.893,57.067 613.5,55.5Z" style="fill:rgb(2,4,4);fill-opacity:0.94;"/>
        </g>
        <g transform="matrix(1,0,0,1,-6.5,45.3943)">
            <path d="M794.5,41.5C815.268,39.797 829.768,48.463 838,67.5C845.068,92.661 836.901,110.827 813.5,122C806.233,123.515 798.899,123.848 791.5,123C783.987,121.162 778.153,116.996 774,110.5C773.5,125.163 773.333,139.83 773.5,154.5L757.5,154.5L757.5,42.5L773.5,42.5C773.334,47.844 773.501,53.177 774,58.5C778.595,50.067 785.428,44.4 794.5,41.5ZM795.5,55.5C817.178,56.509 827.011,67.843 825,89.5C817.327,108.085 804.16,113.585 785.5,106C771.782,94.962 769.282,81.795 778,66.5C782.745,60.888 788.578,57.221 795.5,55.5Z" style="fill:rgb(2,4,4);fill-opacity:0.93;"/>
        </g>
        <g transform="matrix(1,0,0,1,-6.5,45.3943)">
            <rect x="235.5" y="42.5" width="16" height="80" style="fill:rgb(2,4,4);fill-opacity:0.93;"/>
        </g>
        <g transform="matrix(1,0,0,1,-6.5,45.3943)">
            <path d="M525.5,42.5L541.5,42.5C541.334,48.842 541.5,55.175 542,61.5C547.838,48.167 558.004,41.833 572.5,42.5L572.5,58.5C558.961,55.613 549.128,60.28 543,72.5C541.559,89.11 541.059,105.777 541.5,122.5L525.5,122.5L525.5,42.5Z" style="fill:rgb(2,4,4);fill-opacity:0.93;"/>
        </g>
        <g transform="matrix(1,0,0,1,-6.5,45.3943)">
            <path d="M668.5,42.5L684.5,42.5C684.333,59.837 684.5,77.17 685,94.5C690.237,106.868 699.404,111.368 712.5,108C719,105.5 723.5,101 726,94.5C727.444,77.223 727.944,59.889 727.5,42.5L743.5,42.5L743.5,122.5L727.5,122.5C727.666,117.821 727.499,113.155 727,108.5C718.812,121.904 706.978,126.737 691.5,123C679.121,119.289 671.621,111.122 669,98.5C668.5,79.836 668.333,61.17 668.5,42.5Z" style="fill:rgb(2,4,4);fill-opacity:0.93;"/>
        </g>
        <g transform="matrix(1,0,0,1,-6.5,45.3943)">
            <rect x="848.5" y="102.5" width="3" height="20" style="fill:rgb(138,141,141);fill-opacity:0.91;"/>
        </g>
    </g>
</svg>
